<svg width="246" height="161" viewBox="0 0 246 161" fill="none" xmlns="http://www.w3.org/2000/svg">
<path d="M241.553 38.108L237.714 56.648L235.243 54.244L231.039 57.236L227.825 53.256L220.621 58.48L214.463 48.212L207.595 52.224L204.871 48.48L196.15 53.38L193.526 47.776L199.64 18.252L232.415 25L241.553 38.108Z" fill="#EBEBEB"/>
<path d="M232.415 25L241.553 38.108L230.185 35.768L232.415 25Z" fill="#DBDBDB"/>
<path d="M236.896 60.352L231.268 87.552L187.12 78.464L192.708 51.484L195.332 57.084L204.057 52.184L206.777 55.928L213.649 51.92L219.803 62.188L227.011 56.964L230.221 60.94L234.429 57.952L236.896 60.352Z" fill="#EBEBEB"/>
<path d="M173.709 57.164L128.719 59.94L125.145 2.35602L158.553 0.292023L170.817 10.552L173.709 57.164Z" fill="#EBEBEB"/>
<path d="M158.554 0.292023L170.817 10.552L159.232 11.268L158.554 0.292023Z" fill="#DBDBDB"/>
<path d="M146.098 39.04L145.921 37.74C145.468 35.048 146.206 32.036 148.553 28.888C150.671 26.088 151.818 24.088 151.69 21.816C151.546 19.256 149.841 17.64 146.668 17.768C144.854 17.862 143.112 18.5037 141.673 19.608L140.289 16.516C141.894 15.216 144.702 14.256 147.37 14.116C153.158 13.796 155.974 17.212 156.195 21.024C156.388 24.436 154.614 27 152.36 29.996C150.29 32.728 149.612 34.98 149.905 37.528L150.029 38.832L146.098 39.04ZM145.384 46.124C145.279 44.268 146.463 42.892 148.224 42.796C149.985 42.7 151.269 43.932 151.373 45.792C151.469 47.548 150.39 48.964 148.529 49.068C146.752 49.168 145.468 47.88 145.368 46.124H145.384Z" fill="#DBDBDB"/>
<path d="M33.5644 29.244L29.0393 27.2L28.4095 28.58C28.3165 28.7772 28.1714 28.9455 27.9897 29.0667C27.8081 29.1879 27.5968 29.2575 27.3785 29.268C27.1298 29.2761 26.8819 29.3002 26.6363 29.34C26.4208 29.3719 26.2006 29.3449 25.9992 29.2618C25.7978 29.1786 25.6229 29.0425 25.493 28.868L24.6065 27.632L20.5668 30.52L21.4534 31.756C21.5767 31.9344 21.6492 32.1428 21.6634 32.359C21.6775 32.5752 21.6327 32.7912 21.5336 32.984C21.4192 33.204 21.3161 33.4296 21.2247 33.66C21.1452 33.8632 21.0117 34.0409 20.8386 34.1741C20.6654 34.3073 20.4591 34.3909 20.2419 34.416L18.7295 34.564L19.2149 39.496L20.7353 39.344C20.9533 39.3266 21.172 39.3689 21.3678 39.4661C21.5636 39.5634 21.7291 39.712 21.8465 39.896C21.9107 40 21.9789 40.1 22.0511 40.2C22.1233 40.3 22.1955 40.396 22.2717 40.492C22.4102 40.66 22.4992 40.8629 22.5289 41.0783C22.5587 41.2936 22.528 41.513 22.4402 41.712L21.8064 43.104L26.3355 45.152L26.9653 43.764C27.0592 43.567 27.2051 43.3992 27.3875 43.2786C27.5699 43.1581 27.7817 43.0895 28.0003 43.08C28.2462 43.0699 28.4913 43.0459 28.7344 43.008C28.95 42.9761 29.1702 43.0031 29.3716 43.0863C29.5729 43.1694 29.7479 43.3055 29.8777 43.48L30.7643 44.716L34.808 41.828L33.9214 40.592C33.7943 40.4152 33.7194 40.2065 33.7052 39.9894C33.6911 39.7724 33.7381 39.5557 33.8412 39.364C33.9529 39.1453 34.0533 38.921 34.142 38.692C34.2192 38.4874 34.352 38.3082 34.5256 38.1747C34.6993 38.0411 34.9068 37.9585 35.1249 37.936L36.6453 37.784L36.1559 32.852L34.6355 33C34.4188 33.019 34.2011 32.9778 34.0064 32.8811C33.8117 32.7844 33.6476 32.6359 33.5323 32.452C33.4641 32.348 33.3959 32.248 33.3237 32.148C33.2515 32.048 33.1793 31.948 33.103 31.856C32.9655 31.686 32.8772 31.4818 32.8475 31.2654C32.8178 31.049 32.8479 30.8286 32.9346 30.628L33.5644 29.244ZM30.997 33.808C31.4661 34.4608 31.7305 35.2376 31.7568 36.0402C31.7832 36.8428 31.5702 37.6352 31.1448 38.3171C30.7195 38.999 30.1009 39.5398 29.3673 39.8712C28.6337 40.2025 27.818 40.3095 27.0234 40.1786C26.2288 40.0476 25.491 39.6847 24.9032 39.1356C24.3155 38.5865 23.9043 37.876 23.7216 37.0939C23.5389 36.3118 23.5929 35.4932 23.8768 34.7417C24.1607 33.9902 24.6617 33.3396 25.3165 32.872C26.1943 32.2452 27.2859 31.9917 28.3511 32.1672C29.4163 32.3427 30.3681 32.9329 30.997 33.808Z" fill="#EBEBEB"/>
<path d="M238.116 94.684L235.099 96.42L235.633 97.34C235.712 97.472 235.752 97.6242 235.747 97.7781C235.742 97.9321 235.693 98.0814 235.605 98.208C235.512 98.352 235.424 98.5 235.344 98.656C235.278 98.794 235.174 98.9103 235.044 98.9911C234.914 99.0719 234.763 99.1139 234.61 99.112H233.551V102.588H234.618C234.771 102.586 234.922 102.628 235.052 102.709C235.182 102.79 235.286 102.906 235.352 103.044C235.432 103.2 235.52 103.348 235.613 103.492C235.701 103.619 235.75 103.768 235.755 103.922C235.76 104.076 235.72 104.228 235.641 104.36L235.107 105.28L238.124 107.016L238.662 106.092C238.739 105.961 238.852 105.854 238.988 105.783C239.123 105.713 239.275 105.681 239.428 105.692H239.941C240.094 105.682 240.246 105.713 240.381 105.784C240.516 105.855 240.629 105.961 240.707 106.092L241.245 107.02L244.258 105.284L243.724 104.36C243.648 104.227 243.611 104.076 243.617 103.923C243.622 103.771 243.671 103.623 243.756 103.496C243.849 103.352 243.937 103.2 244.017 103.048C244.083 102.91 244.187 102.794 244.317 102.713C244.447 102.632 244.598 102.59 244.751 102.592H245.818V99.116H244.743C244.59 99.1179 244.439 99.0759 244.309 98.9951C244.179 98.9143 244.075 98.798 244.009 98.66C243.929 98.508 243.841 98.356 243.748 98.212C243.663 98.0853 243.614 97.9372 243.609 97.7846C243.603 97.6319 243.64 97.4807 243.716 97.348L244.25 96.424L241.237 94.688L240.699 95.6C240.622 95.7311 240.509 95.8379 240.373 95.9086C240.238 95.9792 240.086 96.0109 239.933 96H239.676H239.42C239.267 96.0103 239.114 95.9784 238.978 95.9078C238.842 95.8373 238.729 95.7308 238.65 95.6L238.116 94.684ZM239.676 98.004C240.242 98.0032 240.795 98.1697 241.265 98.4823C241.735 98.795 242.102 99.2397 242.319 99.7603C242.535 100.281 242.592 100.854 242.482 101.407C242.372 101.959 242.1 102.467 241.7 102.866C241.3 103.264 240.791 103.536 240.237 103.645C239.682 103.755 239.108 103.699 238.586 103.482C238.064 103.266 237.617 102.901 237.304 102.432C236.99 101.963 236.823 101.412 236.824 100.848C236.824 100.474 236.897 100.104 237.04 99.7584C237.183 99.4129 237.393 99.0989 237.658 98.8344C237.923 98.5699 238.238 98.3601 238.584 98.2169C238.93 98.0737 239.302 98 239.676 98V98.004Z" fill="#EBEBEB"/>
<path d="M42.7186 14.464L39.9546 16.576L40.5924 17.42C40.6875 17.5403 40.7461 17.6853 40.761 17.8377C40.7759 17.9902 40.7467 18.1437 40.6767 18.28C40.5999 18.4357 40.5329 18.5961 40.4761 18.76C40.4266 18.9045 40.3377 19.0323 40.2194 19.1292C40.101 19.226 39.9579 19.2879 39.8061 19.308L38.7471 19.444L39.1964 22.888L40.2554 22.752C40.4096 22.7306 40.5667 22.753 40.7086 22.8167C40.8506 22.8804 40.9716 22.9828 41.0578 23.112C41.1544 23.2512 41.2588 23.3847 41.3707 23.512C41.474 23.6254 41.5426 23.7659 41.5682 23.9169C41.5938 24.068 41.5753 24.2231 41.5151 24.364L41.1139 25.348L44.3232 26.68L44.7243 25.696C44.784 25.5549 44.8822 25.4332 45.0077 25.3449C45.1332 25.2565 45.281 25.2049 45.4344 25.196L45.6911 25.168L45.9439 25.128C46.0923 25.1001 46.2456 25.1134 46.3871 25.1663C46.5285 25.2191 46.6527 25.3097 46.7462 25.428L47.4001 26.28L50.1641 24.168L49.5182 23.324C49.4249 23.2021 49.3676 23.0566 49.3527 22.904C49.3378 22.7514 49.366 22.5976 49.434 22.46C49.51 22.3054 49.577 22.1464 49.6345 21.984C49.684 21.8396 49.7729 21.7117 49.8912 21.6149C50.0096 21.5181 50.1527 21.4562 50.3045 21.436L51.3635 21.3L50.9142 17.856L49.8552 17.992C49.7014 18.0139 49.5446 17.9921 49.4027 17.9291C49.2608 17.8661 49.1395 17.7646 49.0529 17.636C48.9526 17.492 48.8483 17.356 48.7359 17.236C48.6425 17.1203 48.582 16.9816 48.5608 16.8345C48.5397 16.6874 48.5586 16.5373 48.6156 16.4L49.0168 15.416L45.8075 14.084L45.4063 15.068C45.3458 15.2087 45.2475 15.3298 45.1221 15.4181C44.9968 15.5063 44.8494 15.5583 44.6963 15.568L44.4395 15.592L44.2028 15.6C44.0544 15.6279 43.9011 15.6147 43.7596 15.5618C43.6182 15.5089 43.494 15.4184 43.4005 15.3L42.7186 14.464ZM44.6963 17.556C45.2551 17.4844 45.8226 17.5794 46.3274 17.829C46.8321 18.0787 47.2514 18.4718 47.5323 18.9587C47.8132 19.4457 47.9432 20.0047 47.9059 20.5652C47.8686 21.1258 47.6656 21.6627 47.3226 22.1084C46.9795 22.554 46.5118 22.8884 45.9784 23.0693C45.445 23.2502 44.8699 23.2696 44.3255 23.1249C43.7811 22.9803 43.2918 22.6781 42.9194 22.2565C42.5471 21.8349 42.3083 21.3128 42.2331 20.756C42.183 20.3845 42.2071 20.0067 42.3039 19.6445C42.4007 19.2823 42.5684 18.9427 42.7973 18.6453C43.0262 18.3479 43.3118 18.0985 43.6377 17.9116C43.9636 17.7247 44.3234 17.6038 44.6963 17.556Z" fill="#EBEBEB"/>
<path d="M22.067 104.712C22.2177 100.845 22.1641 96.9732 21.9065 93.112C21.3325 85.1389 20.1131 77.2251 18.26 69.448C17.241 65.072 15.9894 60.768 14.6816 56.468C14.6415 56.336 14.4329 56.372 14.469 56.508C18.5087 71.668 21.8223 87.308 21.5936 103.068C21.5294 107.468 21.0159 111.808 20.5987 116.192C20.5987 116.308 20.7793 116.356 20.8073 116.236C21.6377 112.472 21.9105 108.544 22.067 104.712Z" fill="#EBEBEB"/>
<path d="M14.4687 56.496C14.4687 56.496 8.35502 71.976 9.72298 75.6C11.0909 79.224 13.9151 80 13.9151 80C13.9151 80 10.1723 85.328 12.7878 90.324C15.4034 95.32 21.2122 95.084 21.6133 100.748C21.6013 100.776 21.9222 77.092 14.4687 56.496Z" fill="#EBEBEB"/>
<path d="M20.9361 90.996C20.946 90.9703 20.946 90.9418 20.9361 90.916C20.1337 80.3476 18.1449 69.9023 15.007 59.776C15.007 59.748 14.9468 59.756 14.9548 59.776C16.1663 64.3094 17.2361 68.8614 18.1641 73.432C17.3422 72.6556 16.338 72.0973 15.2436 71.808C15.2436 71.808 15.2115 71.832 15.2436 71.84C16.3933 72.2601 17.4271 72.9454 18.2604 73.84C18.4369 74.74 18.6134 75.636 18.7779 76.536C17.4099 75.012 15.5164 74.256 13.6189 73.536C13.6146 73.5379 13.611 73.541 13.6084 73.5449C13.6059 73.5488 13.6045 73.5534 13.6045 73.558C13.6045 73.5627 13.6059 73.5673 13.6084 73.5712C13.611 73.5751 13.6146 73.5782 13.6189 73.58C15.5967 74.38 17.5623 75.412 18.9022 77.112C19.3676 79.68 19.7767 82.2574 20.1298 84.844C19.142 83.8122 17.8753 83.0883 16.4832 82.76C16.4391 82.76 16.415 82.812 16.4592 82.824C17.8892 83.2439 19.1659 84.0695 20.1338 85.2H20.1578C20.2782 86.1067 20.3932 87.0174 20.5028 87.932C19.7387 87.2873 18.876 86.7687 17.9475 86.396C17.9234 86.396 17.9073 86.424 17.9475 86.432C18.8951 86.8413 19.7628 87.4141 20.5109 88.124C20.5109 88.124 20.5309 88.124 20.543 88.124C20.6432 88.992 20.7435 89.86 20.8318 90.728C19.4543 89.0675 17.6665 87.7937 15.6448 87.032C15.6363 87.032 15.6281 87.0354 15.6221 87.0414C15.6161 87.0474 15.6127 87.0555 15.6127 87.064C15.6127 87.0725 15.6161 87.0807 15.6221 87.0867C15.6281 87.0927 15.6363 87.096 15.6448 87.096C17.6411 87.9734 19.3947 89.3198 20.7556 91.02C20.7705 91.0387 20.7908 91.0525 20.8136 91.0596C20.8365 91.0667 20.861 91.0669 20.8839 91.06C21.0163 92.392 21.1367 93.724 21.233 95.06C21.233 95.08 21.265 95.08 21.265 95.06C21.1607 93.7187 21.0511 92.364 20.9361 90.996Z" fill="white"/>
<path d="M16.0219 70.284C14.9147 69.5969 13.6499 69.2032 12.3473 69.14C12.3409 69.14 12.3348 69.1425 12.3303 69.147C12.3258 69.1515 12.3232 69.1576 12.3232 69.164C12.3232 69.1704 12.3258 69.1765 12.3303 69.181C12.3348 69.1855 12.3409 69.188 12.3473 69.188C13.6067 69.4261 14.8288 69.8296 15.9818 70.388C16.03 70.4 16.0661 70.316 16.0219 70.284Z" fill="white"/>
<path d="M16.7641 86.6721C15.9131 86.1851 14.9761 85.8659 14.0041 85.7321C13.972 85.7321 13.968 85.7761 14.0041 85.7841C14.9532 85.9739 15.8713 86.2943 16.732 86.7361C16.7681 86.7561 16.8002 86.6921 16.7641 86.6721Z" fill="white"/>
<path d="M38.1453 75.868C35.559 77.6506 33.1837 79.7198 31.0649 82.036C28.8798 84.4884 27.1943 87.3415 26.1025 90.436C23.779 96.8833 22.5295 103.666 22.4038 110.516C22.3259 114.309 22.6907 118.099 23.491 121.808C23.4975 121.835 23.5141 121.858 23.5375 121.874C23.5608 121.889 23.5891 121.894 23.6164 121.889C23.6437 121.884 23.668 121.868 23.6842 121.846C23.7005 121.823 23.7074 121.796 23.7036 121.768C22.7078 115.223 22.7457 108.562 23.8159 102.028C24.867 95.628 26.5157 88.66 30.5995 83.456C32.822 80.62 35.594 78.392 38.3339 76.088C38.4783 75.96 38.2938 75.764 38.1453 75.868Z" fill="#EBEBEB"/>
<path d="M23.3027 105.9C24.7749 103.526 26.505 101.32 28.4616 99.324C31.5225 96.272 34.0979 94.104 34.4991 92.088C34.9002 90.072 31.4342 88.584 31.4342 88.584C31.4342 88.584 35.6665 89.344 36.8258 87.572C37.9852 85.8 38.5428 75.536 38.5428 75.536C38.5428 75.536 30.8405 81.02 27.2501 88.708C23.6598 96.396 23.3027 105.9 23.3027 105.9Z" fill="#EBEBEB"/>
<path d="M35.7782 85.164C35.2711 85.0888 34.7569 85.0713 34.2458 85.112C34.1856 85.112 34.1896 85.216 34.2458 85.22C34.7513 85.22 35.2607 85.196 35.7662 85.22C35.772 85.2185 35.7772 85.2155 35.7814 85.2112C35.7855 85.2069 35.7883 85.2016 35.7896 85.1957C35.7908 85.1899 35.7904 85.1839 35.7884 85.1783C35.7864 85.1727 35.7829 85.1677 35.7782 85.164Z" fill="white"/>
<path d="M30.2469 95.12C29.4336 95.1365 28.6296 95.2963 27.8721 95.592C27.8721 95.592 27.8721 95.632 27.8721 95.628C28.6744 95.44 29.4486 95.364 30.2429 95.228C30.2533 95.2235 30.2622 95.2161 30.2685 95.2068C30.2749 95.1975 30.2785 95.1865 30.2789 95.1753C30.2793 95.164 30.2766 95.1528 30.2709 95.143C30.2652 95.1333 30.2569 95.1253 30.2469 95.12Z" fill="white"/>
<path d="M28.5855 91.68C28.2478 91.6774 27.9106 91.7068 27.5785 91.768C27.5724 91.7703 27.5671 91.7744 27.5634 91.7797C27.5596 91.7851 27.5576 91.7915 27.5576 91.798C27.5576 91.8046 27.5596 91.8109 27.5634 91.8163C27.5671 91.8217 27.5724 91.8258 27.5785 91.828C27.9148 91.8474 28.2522 91.8327 28.5855 91.784C28.5993 91.784 28.6125 91.7786 28.6223 91.7688C28.6321 91.759 28.6376 91.7458 28.6376 91.732C28.6376 91.7182 28.6321 91.705 28.6223 91.6953C28.6125 91.6855 28.5993 91.68 28.5855 91.68Z" fill="white"/>
<path d="M0.721402 86.756C3.22832 87.6035 5.63062 88.732 7.8821 90.12C10.2182 91.6002 12.2441 93.5183 13.8473 95.768C17.2207 100.45 19.8035 105.651 21.4934 111.164C22.436 114.217 23.0176 117.369 23.2264 120.556C23.2221 120.577 23.2107 120.595 23.1943 120.608C23.1778 120.622 23.1573 120.629 23.1362 120.629C23.115 120.629 23.0945 120.622 23.0781 120.608C23.0617 120.595 23.0503 120.577 23.0459 120.556C22.3378 115.03 20.7649 109.648 18.3844 104.608C16.0457 99.668 13.0972 94.412 8.58814 91.14C6.13304 89.36 3.37307 88.192 0.621112 86.96C0.476695 86.912 0.576985 86.708 0.721402 86.756Z" fill="#EBEBEB"/>
<path d="M19.6962 107.64C17.9534 106.059 16.0418 104.673 13.9957 103.508C10.8105 101.744 8.22304 100.584 7.43276 99.044C6.64248 97.504 9.10159 95.504 9.10159 95.504C9.10159 95.504 5.85219 97.104 4.5043 95.924C3.1564 94.744 0.324219 86.584 0.324219 86.584C0.324219 86.584 7.82991 89.244 12.5114 94.64C17.193 100.036 19.6962 107.64 19.6962 107.64Z" fill="#EBEBEB"/>
<path d="M13.4665 100.128C12.7285 100.077 11.9876 100.168 11.2842 100.396C11.2842 100.396 11.2842 100.432 11.2842 100.428C12.0018 100.305 12.7268 100.231 13.4545 100.204C13.5066 100.204 13.5186 100.132 13.4665 100.128Z" fill="white"/>
<path d="M6.91935 91.568C6.58272 91.5406 6.24392 91.5595 5.91244 91.624C5.87633 91.624 5.88837 91.688 5.91244 91.684C6.2454 91.648 6.57034 91.66 6.89929 91.652C6.90951 91.6524 6.91955 91.6493 6.9277 91.6431C6.93585 91.637 6.9416 91.6282 6.94397 91.6182C6.94634 91.6083 6.94517 91.5979 6.94068 91.5887C6.93619 91.5796 6.92865 91.5723 6.91935 91.568Z" fill="white"/>
<path d="M29.3765 130.872H12.4355L14.8505 113.228L15.4683 108.704H26.3437L26.9615 113.228L29.3765 130.872Z" fill="#DBDBDB"/>
<path d="M26.9616 113.228H14.8506L15.4684 108.704H26.3438L26.9616 113.228Z" fill="#C7C7C7"/>
<path d="M27.8956 107.136H13.9111V110.968H27.8956V107.136Z" fill="#DBDBDB"/>
<path d="M1.66406 130.872L32.1562 130.776L62.6483 130.74L123.633 130.672L184.617 130.74L215.109 130.776L245.601 130.872L215.109 130.972L184.617 131.004L123.633 131.072L62.6483 131.004L32.1562 130.968L1.66406 130.872Z" fill="#263238"/>
<path d="M124.435 160.684C187.963 160.684 239.463 155.057 239.463 148.116C239.463 141.175 187.963 135.548 124.435 135.548C60.9062 135.548 9.40625 141.175 9.40625 148.116C9.40625 155.057 60.9062 160.684 124.435 160.684Z" fill="#F4F4F4"/>
<path d="M97.6572 146.036C96.7224 146.352 69.921 146.436 68.894 145.804C68.4928 145.564 68.2642 141.672 68.0917 136.96C68.0556 135.944 68.0275 134.892 68.0034 133.828L65.8652 119.572L83.785 119.456L85.4739 133.716L85.4057 136.852C85.4057 136.852 95.6834 141.392 96.7345 142.216C97.7855 143.04 98.5919 145.72 97.6572 146.036Z" fill="#E06A6D"/>
<path d="M97.6572 146.036C96.7225 146.352 69.921 146.436 68.8941 145.804C68.4207 145.508 68.1639 139.824 68.0195 133.828L85.4539 133.716L85.3857 136.852C85.3857 136.852 95.6634 141.392 96.7145 142.216C97.7655 143.04 98.5919 145.72 97.6572 146.036Z" fill="white"/>
<path d="M97.6573 146.036C96.7226 146.352 69.9211 146.436 68.8941 145.804C68.493 145.564 68.2643 141.672 68.0918 136.96L85.3697 136.852C85.3697 136.852 95.6475 141.392 96.6985 142.216C97.7495 143.04 98.592 145.72 97.6573 146.036Z" fill="#A6A6A6"/>
<path d="M97.2683 144.968C92.7753 144.872 74.6429 144.916 70.1941 145.164C70.158 145.164 70.158 145.188 70.1941 145.192C74.6469 145.38 92.7794 145.192 97.2683 145.04C97.3646 145.036 97.3646 144.968 97.2683 144.968Z" fill="#263238"/>
<path d="M94.9853 141.26C94.4857 141.249 93.9892 141.341 93.5272 141.531C93.0652 141.721 92.6479 142.005 92.3015 142.364C91.6703 143.005 91.3136 143.866 91.3066 144.764C91.3066 144.792 91.3548 144.792 91.3588 144.764C91.508 143.879 91.9401 143.066 92.5908 142.446C93.2415 141.826 94.0758 141.432 94.9692 141.324C94.9777 141.326 94.9867 141.325 94.9943 141.32C95.0018 141.316 95.0072 141.309 95.0093 141.3C95.0115 141.292 95.0101 141.283 95.0056 141.275C95.0011 141.268 94.9938 141.262 94.9853 141.26Z" fill="#263238"/>
<path d="M87.1273 137.292C85.3302 137.272 83.2481 137.912 82.1329 139.384C82.0928 139.44 82.173 139.5 82.2252 139.472C83.7954 138.646 85.4495 137.989 87.1594 137.512C87.1859 137.505 87.2087 137.488 87.2238 137.465C87.2388 137.442 87.2449 137.415 87.2409 137.388C87.237 137.361 87.2233 137.336 87.2023 137.318C87.1814 137.301 87.1547 137.291 87.1273 137.292Z" fill="#263238"/>
<path d="M88.5228 137.824C86.7216 137.824 84.6396 138.448 83.5284 139.916C83.4842 139.976 83.5645 140.036 83.6206 140.008C85.1885 139.179 86.8415 138.52 88.5509 138.044C88.577 138.037 88.5996 138.021 88.6146 137.998C88.6296 137.976 88.636 137.949 88.6326 137.922C88.6292 137.895 88.6162 137.87 88.596 137.852C88.5759 137.834 88.5499 137.824 88.5228 137.824Z" fill="#263238"/>
<path d="M89.9106 138.36C88.1134 138.36 86.0313 138.98 84.9161 140.452C84.876 140.508 84.9562 140.568 85.0084 140.54C86.5786 139.714 88.2327 139.057 89.9426 138.58C89.9691 138.573 89.992 138.556 90.007 138.533C90.022 138.51 90.0281 138.483 90.0242 138.456C90.0202 138.429 90.0065 138.404 89.9856 138.386C89.9646 138.369 89.938 138.359 89.9106 138.36Z" fill="#263238"/>
<path d="M91.3027 138.896C89.5015 138.876 87.4195 139.516 86.3083 140.988C86.2641 141.044 86.3484 141.104 86.4005 141.076C87.9704 140.249 89.6246 139.592 91.3348 139.116C91.3612 139.109 91.3841 139.092 91.3991 139.069C91.4142 139.046 91.4203 139.019 91.4163 138.992C91.4124 138.965 91.3986 138.94 91.3777 138.922C91.3568 138.905 91.3301 138.895 91.3027 138.896Z" fill="#263238"/>
<path d="M71.3256 140.904C69.3198 140.904 69.3198 144.044 71.3256 144.032C73.3314 144.02 73.3475 140.892 71.3256 140.904Z" fill="#263238"/>
<path d="M89.0561 132.5C88.1455 131.748 86.9982 132.5 86.4406 133.272C85.5124 134.636 84.9591 136.22 84.8359 137.864C84.8359 137.9 84.864 137.916 84.8921 137.916C84.8992 137.95 84.9144 137.981 84.9363 138.008C84.9583 138.035 84.9863 138.056 85.0182 138.07C85.05 138.084 85.0847 138.09 85.1193 138.087C85.1539 138.085 85.1874 138.074 85.217 138.056C86.4927 137.172 87.969 136.38 88.9358 135.128C89.4854 134.4 89.9347 133.2 89.0561 132.5ZM86.8658 136.316C86.248 136.768 85.6102 137.188 85.0084 137.664C85.3294 136.768 85.6062 135.864 86.0153 135C86.2044 134.586 86.4215 134.185 86.6652 133.8C87.0664 133.204 88.8154 131.7 89 133.648C89.1043 134.716 87.5999 135.78 86.8658 136.316Z" fill="#263238"/>
<path d="M80.3596 138.544C81.9241 138.776 83.5407 138.328 85.0772 138.084C85.1105 138.075 85.1414 138.059 85.1673 138.036C85.1932 138.014 85.2134 137.985 85.2262 137.953C85.2391 137.921 85.2443 137.887 85.2414 137.853C85.2385 137.818 85.2276 137.785 85.2096 137.756C85.2154 137.752 85.2201 137.746 85.2234 137.739C85.2266 137.733 85.2283 137.725 85.2283 137.718C85.2283 137.711 85.2266 137.703 85.2234 137.697C85.2201 137.69 85.2154 137.684 85.2096 137.68C83.975 136.582 82.4725 135.828 80.853 135.492C79.9062 135.312 78.5664 135.572 78.446 136.744C78.3016 137.848 79.4449 138.4 80.3596 138.544ZM79.2684 137.528C78.0649 135.992 80.3636 135.86 81.0536 136.02C81.5012 136.132 81.9408 136.273 82.3694 136.444C83.2468 136.807 84.105 137.214 84.9408 137.664C84.1786 137.74 83.4284 137.876 82.6702 137.98C81.7636 138.1 79.9424 138.372 79.2684 137.528Z" fill="#263238"/>
<path d="M39.5176 53.68C39.5176 53.68 60.3257 88.976 60.8833 91.456C61.7378 95.264 66.2669 132.868 66.2669 132.868L87.9295 132.468C87.9295 132.468 84.1987 99.312 80.6645 88.388C78.1212 80.52 59.7561 54.424 59.7561 54.424L39.5176 53.68Z" fill="#37474F"/>
<path d="M85.9594 129.172C82.8504 129.148 71.8305 129.024 67.6906 129.408C67.6585 129.408 67.6625 129.464 67.6906 129.468C69.1147 129.672 82.8464 129.356 85.9554 129.256C85.9618 129.258 85.9688 129.259 85.9757 129.258C85.9825 129.257 85.9891 129.255 85.9948 129.251C86.0006 129.247 86.0054 129.242 86.0088 129.236C86.0122 129.23 86.0141 129.224 86.0144 129.217C86.0148 129.21 86.0135 129.203 86.0106 129.197C86.0078 129.19 86.0036 129.185 85.9982 129.181C85.9929 129.176 85.9865 129.173 85.9798 129.172C85.9731 129.17 85.9661 129.17 85.9594 129.172Z" fill="#263238"/>
<path d="M43.0677 56.92C44.4317 59.052 45.8759 61.14 47.2639 63.256C48.6519 65.372 50.0479 67.488 51.4239 69.6C54.1678 73.8667 56.8422 78.1613 59.4471 82.484C60.7184 84.4877 61.8059 86.6016 62.6965 88.8C63.5094 90.9989 64.1203 93.2669 64.5218 95.576C64.947 97.892 65.2278 100.232 65.4886 102.572C65.756 105.06 66.0355 107.549 66.327 110.04C66.8966 115.136 67.4676 120.232 68.0399 125.328C68.1081 125.952 68.1763 126.576 68.2405 127.204C68.2405 127.296 68.0841 127.312 68.072 127.204C67.4342 122.144 66.9046 117.064 66.327 112.004C66.0381 109.479 65.7506 106.955 65.4645 104.432C65.1957 102.084 64.939 99.732 64.5739 97.4C64.2389 95.0982 63.7293 92.825 63.0495 90.6C62.3005 88.2962 61.2967 86.0826 60.0569 84C57.5496 79.684 54.8939 75.444 52.2383 71.2C49.5826 66.956 46.8547 62.676 44.0546 58.484C43.7096 57.968 43.3606 57.452 42.9995 56.944C42.9715 56.916 43.0437 56.88 43.0677 56.92Z" fill="#263238"/>
<path d="M46.337 148.116C45.3502 148.056 19.8605 137.76 19.1545 136.784C19.123 136.727 19.1091 136.661 19.1144 136.596C19.1144 135.72 20.8835 132.664 22.3598 128.648C22.452 128.392 23.1099 127.2 24.0206 125.596C26.5519 121.2 30.9646 113.628 30.9646 113.628L47.6248 120.228L39.6497 132.128L38.4101 135.008C38.4101 135.008 46.2287 143.068 46.8866 144.208C47.5445 145.348 47.3199 148.172 46.337 148.116Z" fill="#E06A6D"/>
<path d="M46.3371 148.116C45.3502 148.056 19.8605 137.76 19.1545 136.784C19.123 136.727 19.1091 136.661 19.1144 136.596C19.1144 135.72 20.8835 132.664 22.3598 128.648C22.452 128.392 23.1099 127.2 24.0206 125.596L39.6658 132.128L38.4262 135.008C38.4262 135.008 46.2448 143.068 46.9027 144.208C47.5606 145.348 47.3199 148.172 46.3371 148.116Z" fill="white"/>
<path d="M46.3375 148.116C45.3507 148.056 19.861 137.76 19.1549 136.784C18.8822 136.412 20.0215 132.944 22.3642 128.648L38.4106 135.012C38.4106 135.012 46.2292 143.064 46.8911 144.212C47.553 145.36 47.3204 148.172 46.3375 148.116Z" fill="#A6A6A6"/>
<path d="M46.3776 146.98C42.2497 145.212 25.4251 138.468 21.2089 137.036C21.1728 137.036 21.1647 137.036 21.2089 137.06C25.2646 138.9 42.1414 145.508 46.3616 147.06C46.4418 147.08 46.4659 147.016 46.3776 146.98Z" fill="#263238"/>
<path d="M45.6553 142.688C45.1976 142.487 44.7031 142.384 44.2032 142.384C43.7032 142.384 43.2087 142.487 42.751 142.688C41.9279 143.047 41.2756 143.709 40.9297 144.536C40.9297 144.56 40.9658 144.58 40.9778 144.556C41.4507 143.789 42.1602 143.196 42.9999 142.865C43.8396 142.534 44.7643 142.483 45.6353 142.72C45.642 142.718 45.6478 142.714 45.6515 142.708C45.6553 142.702 45.6566 142.695 45.6553 142.688Z" fill="#263238"/>
<path d="M39.8666 136.072C38.2098 135.38 36.0355 135.196 34.4509 136.144C34.3907 136.18 34.4509 136.264 34.5031 136.26C36.2695 136.081 38.05 136.091 39.8144 136.288C39.8416 136.291 39.8689 136.284 39.8912 136.268C39.9135 136.253 39.9294 136.229 39.9358 136.203C39.9422 136.176 39.9387 136.148 39.9259 136.124C39.9132 136.1 39.8921 136.082 39.8666 136.072Z" fill="#263238"/>
<path d="M40.9535 137.088C39.2967 136.396 37.1224 136.212 35.5378 137.16C35.4777 137.196 35.5378 137.28 35.59 137.276C37.3563 137.095 39.137 137.105 40.9013 137.304C40.9285 137.307 40.9558 137.3 40.9781 137.284C41.0004 137.269 41.0163 137.245 41.0227 137.219C41.0291 137.192 41.0256 137.165 41.0128 137.14C41.0001 137.116 40.979 137.098 40.9535 137.088Z" fill="#263238"/>
<path d="M42.0442 138.104C40.3834 137.412 38.2091 137.228 36.6286 138.176C36.5644 138.212 36.6286 138.296 36.6767 138.292C38.443 138.111 40.2237 138.121 41.9881 138.32C42.0158 138.325 42.0442 138.319 42.0678 138.303C42.0913 138.288 42.1083 138.265 42.1154 138.238C42.1224 138.21 42.119 138.182 42.1059 138.157C42.0927 138.132 42.0707 138.113 42.0442 138.104Z" fill="#263238"/>
<path d="M43.1321 139.12C41.4713 138.428 39.301 138.244 37.7165 139.188C37.6523 139.228 37.7165 139.312 37.7646 139.308C39.5309 139.127 41.3116 139.137 43.0759 139.336C43.1036 139.341 43.1321 139.335 43.1556 139.32C43.1792 139.304 43.1962 139.281 43.2032 139.254C43.2103 139.227 43.2069 139.198 43.1937 139.173C43.1806 139.148 43.1586 139.129 43.1321 139.12Z" fill="#263238"/>
<path d="M23.8566 133.508C21.9832 132.764 20.8198 135.672 22.7012 136.416C24.5827 137.16 25.75 134.252 23.8566 133.508Z" fill="#263238"/>
<path d="M43.4565 132.352C42.8909 131.316 41.555 131.572 40.7406 132.088C39.3688 133.004 38.2622 134.264 37.5314 135.74C37.5281 135.747 37.5264 135.754 37.5264 135.761C37.5263 135.768 37.5279 135.775 37.531 135.782C37.534 135.788 37.5386 135.794 37.5442 135.799C37.5498 135.803 37.5564 135.806 37.5635 135.808C37.5635 135.94 37.6517 136.096 37.8082 136.064C39.3286 135.716 40.9934 135.536 42.3573 134.736C43.1396 134.272 43.99 133.332 43.4565 132.352ZM39.9865 135.068C39.2443 135.256 38.4982 135.408 37.764 135.624C38.3713 134.895 39.0153 134.196 39.6936 133.532C40.0275 133.215 40.3827 132.921 40.7567 132.652C41.3384 132.252 43.5367 131.512 42.9751 133.388C42.6662 134.424 40.873 134.844 39.9865 135.068Z" fill="#263238"/>
<path d="M33.1191 134.7C34.483 135.5 36.1479 135.688 37.6642 136.04C37.8207 136.076 37.925 135.92 37.913 135.784C37.9205 135.783 37.9277 135.78 37.9338 135.776C37.94 135.772 37.9449 135.766 37.9482 135.759C37.9514 135.752 37.9528 135.745 37.9523 135.737C37.9517 135.73 37.9492 135.722 37.9451 135.716C37.2154 134.237 36.1087 132.975 34.7358 132.056C33.9335 131.536 32.5896 131.276 32.0199 132.308C31.4503 133.34 32.3208 134.232 33.1191 134.7ZM32.4933 133.348C31.9357 131.472 34.13 132.216 34.7117 132.62C35.0852 132.889 35.4391 133.185 35.7708 133.504C36.4478 134.17 37.0905 134.869 37.6963 135.6C36.9622 135.384 36.2161 135.228 35.4739 135.04C34.5753 134.8 32.7982 134.4 32.4933 133.348Z" fill="#263238"/>
<path d="M40.9458 131.464L22.2959 123.956C22.2959 123.956 45.4187 90.056 45.5872 87.532C45.7397 85.3 35.5823 65.852 35.1852 60.184C34.7519 54.064 37.7044 49.332 40.9538 46.392L60.1894 54.548C60.1894 54.548 58.1595 57.784 54.9743 59.588C54.9743 59.588 64.8388 82.068 64.2772 88.98C63.7156 95.892 40.9458 131.464 40.9458 131.464Z" fill="#37474F"/>
<path d="M41.7717 127.928C39.076 126.772 39.8662 127.064 37.1544 125.928C35.8306 125.376 27.1254 121.764 25.7855 121.464C25.7575 121.464 25.7374 121.504 25.7655 121.52C26.9248 122.228 35.7022 125.688 37.0381 126.216C39.77 127.288 38.9957 126.952 41.7397 127.992C41.7438 127.997 41.7492 128.002 41.7554 128.005C41.7617 128.007 41.7685 128.008 41.7753 128.008C41.7822 128.007 41.7887 128.005 41.7943 128.001C41.8 127.997 41.8046 127.992 41.8076 127.986C41.8107 127.98 41.8121 127.973 41.8118 127.966C41.8115 127.959 41.8095 127.953 41.8059 127.947C41.8023 127.941 41.7972 127.936 41.7913 127.933C41.7853 127.93 41.7786 127.928 41.7717 127.928Z" fill="#263238"/>
<path d="M58.1269 59.176C56.1243 59.6415 54.1649 60.2757 52.27 61.072C52.2624 61.0746 52.2553 61.0787 52.2493 61.0841C52.2432 61.0894 52.2383 61.0959 52.2347 61.1031C52.2312 61.1104 52.2291 61.1182 52.2286 61.1263C52.2281 61.1343 52.2292 61.1424 52.2319 61.15C52.2345 61.1576 52.2386 61.1646 52.244 61.1707C52.2493 61.1767 52.2558 61.1816 52.2631 61.1852C52.2704 61.1887 52.2783 61.1908 52.2863 61.1912C52.2944 61.1917 52.3025 61.1906 52.3101 61.188C54.2758 60.616 56.2736 60.08 58.2072 59.404C58.3556 59.352 58.2794 59.144 58.1269 59.176Z" fill="#263238"/>
<path d="M55.836 58.4C55.6491 58.7315 55.4842 59.0749 55.3426 59.428C55.2041 59.696 55.1183 59.9879 55.0898 60.288C55.0898 60.348 55.1701 60.36 55.2062 60.324C55.4074 60.084 55.5699 59.814 55.6876 59.524C55.852 59.208 56.0205 58.896 56.177 58.572C56.2853 58.336 55.9603 58.184 55.836 58.4Z" fill="#263238"/>
<path d="M56.0776 56.584C56.198 56.288 56.3143 55.996 56.4387 55.7C56.563 55.404 56.7195 55.1 56.8398 54.788C56.8398 54.74 56.9361 54.788 56.9161 54.824C56.7957 55.12 56.7195 55.432 56.6272 55.736C56.535 56.04 56.4307 56.344 56.3304 56.648C56.1418 57.212 55.9292 57.772 55.6685 58.32C55.9841 58.3357 56.2993 58.281 56.5911 58.16C56.8892 57.9698 57.1183 57.6894 57.245 57.36C57.4135 57.032 57.57 56.696 57.7425 56.368C57.9548 56.0133 58.1334 55.6397 58.276 55.252C58.276 55.204 58.3723 55.252 58.3522 55.288C58.0906 56.1078 57.748 56.8997 57.3293 57.652C57.1487 57.944 57.0083 58.252 56.6794 58.364C56.3233 58.4633 55.9507 58.4891 55.5842 58.44C55.5361 58.44 55.4799 58.44 55.496 58.368C55.6602 57.7641 55.8543 57.1687 56.0776 56.584Z" fill="#263238"/>
<path d="M55.2584 60.32C55.9444 61.764 56.5461 63.204 57.1839 64.644C57.8218 66.084 58.3874 67.476 58.9611 68.908C60.1084 71.796 61.1354 74.74 62.038 77.708C62.4833 79.18 62.8964 80.664 63.2655 82.16C63.672 83.6512 63.9697 85.1699 64.1561 86.704C64.317 88.2356 64.1809 89.7837 63.7549 91.264C63.3125 92.7272 62.7448 94.1497 62.058 95.516C61.6368 96.38 61.4964 96.264 61.697 95.828C62.2706 94.588 63.775 90.832 63.6667 87.676C63.5789 86.1651 63.3452 84.6661 62.9687 83.2C62.6183 81.688 62.2238 80.188 61.7852 78.7C60.9308 75.764 59.9158 72.888 58.8728 70.016C58.2871 68.416 57.6693 66.816 57.0676 65.216C56.4659 63.616 55.8641 62.144 55.1902 60.376C55.1701 60.304 55.2383 60.276 55.2584 60.32Z" fill="#263238"/>
<path d="M41.1024 55.548C41.4354 55.424 41.9047 55.628 42.2417 55.684C42.6781 55.7578 43.1191 55.8019 43.5615 55.816C43.9993 55.8314 44.4376 55.8167 44.8733 55.772C45.3121 55.7607 45.7422 55.647 46.1289 55.44C46.7635 54.9791 47.3075 54.4055 47.7336 53.748C48.2413 53.0761 48.6606 52.3421 48.9812 51.564C48.9812 51.516 49.0654 51.564 49.0494 51.596C48.909 52.04 48.8047 52.488 48.6482 52.924C48.4753 53.3336 48.2686 53.7283 48.0304 54.104C47.6442 54.8599 47.073 55.5066 46.3696 55.984C45.5954 56.424 44.6005 56.384 43.738 56.348C43.2378 56.3189 42.7404 56.2534 42.2497 56.152C41.8967 56.076 41.303 56.02 41.0783 55.712C41.0678 55.7002 41.0599 55.6862 41.0554 55.6711C41.0508 55.656 41.0496 55.64 41.0519 55.6244C41.0542 55.6087 41.0599 55.5938 41.0687 55.5806C41.0774 55.5674 41.0889 55.5563 41.1024 55.548Z" fill="#263238"/>
<path d="M27.6188 120.4C30.6836 115.771 33.6923 111.104 36.6449 106.4C39.5974 101.696 42.5098 96.956 45.3821 92.18C46.0681 91.04 46.8584 89.904 47.2997 88.64C47.781 87.268 47.5083 85.936 47.075 84.592C46.2569 82.1402 45.3006 79.7363 44.2107 77.392C43.1356 75.028 41.9763 72.704 40.837 70.372C39.6977 68.04 38.5062 65.736 37.6277 63.304C36.8254 60.98 36.5004 58.572 37.1262 56.164C37.7521 53.756 39.0999 51.628 40.508 49.624C40.8771 49.096 41.2582 48.572 41.6313 48.024C41.6593 47.984 41.7195 48.024 41.6914 48.072C40.139 50.16 38.6266 52.372 37.716 54.824C37.2505 56.0326 36.9902 57.3101 36.9457 58.604C36.9381 59.9174 37.1427 61.2234 37.5515 62.472C38.3057 64.904 39.4971 67.204 40.6083 69.492C41.7195 71.78 42.907 74.148 44.0021 76.504C45.1319 78.8752 46.1362 81.3039 47.0108 83.78C47.3839 84.88 47.8131 86.032 47.781 87.212C47.753 88.504 47.1352 89.668 46.4933 90.756C43.6852 95.496 40.8089 100.18 37.8804 104.836C34.952 109.492 31.9393 114.148 28.8904 118.756L27.7351 120.496C27.6749 120.568 27.5706 120.484 27.6188 120.4Z" fill="#263238"/>
<path d="M61.2567 32.988C62.9937 36.788 71.7671 42.024 75.8749 42.588C78.8275 42.988 87.8054 43.132 90.8823 42.664C94.4927 42.112 91.7328 32.412 89.6026 32.664C83.7457 33.344 78.7713 34.104 77.2068 34.104C75.2973 34.104 64.9674 30.8 63.7238 30.332C60.675 29.2 60.2738 30.832 61.2567 32.988Z" fill="#E06A6D"/>
<path d="M61.3121 34C63.5105 37.244 70.8156 42.548 70.8156 42.548L71.8305 40.308L75.1882 32.9C75.1882 32.9 68.4769 30.8 64.0601 29.84C63.5403 29.722 63.0117 29.6471 62.4795 29.616C59.6594 29.464 59.4147 31.2 61.3121 34Z" fill="#FFD801"/>
<path d="M61.3121 34C63.5105 37.244 70.8156 42.548 70.8156 42.548L71.8305 40.308C69.1067 37.152 64.8985 32.372 62.4795 29.624C59.6594 29.464 59.4147 31.2 61.3121 34Z" fill="#263238"/>
<path d="M69.4995 41.044C70.0571 39.68 72.5363 34.188 73.154 33.044C73.1942 32.964 73.2583 32.972 73.2222 33.044C72.1468 35.7752 70.9228 38.4458 69.5556 41.044C69.5396 41.092 69.4754 41.076 69.4995 41.044Z" fill="#263238"/>
<path d="M88.5273 32.764C92.0896 32.3 96.4984 31.504 100.233 33.084C100.653 33.248 101.005 33.5481 101.232 33.936C102.917 34.616 103.101 35.612 103.101 35.612C104.477 36.724 104.526 37.772 104.526 37.772C104.526 37.772 106.499 38.572 106.198 39.86C105.869 41.284 103.166 39.86 101.2 39.976C96.6869 40.256 90.3687 41.908 89.0649 42.116L88.5273 32.764Z" fill="#E06A6D"/>
<path d="M96.2649 36.956C97.5845 36.866 98.9088 36.866 100.228 36.956C101.665 37.1358 103.087 37.4232 104.481 37.816C104.49 37.8192 104.5 37.8186 104.508 37.8145C104.517 37.8104 104.524 37.803 104.527 37.794C104.53 37.785 104.529 37.7751 104.525 37.7664C104.521 37.7578 104.514 37.7512 104.505 37.748C101.886 36.7237 99.0361 36.4359 96.2649 36.916C96.2008 36.908 96.2008 36.96 96.2649 36.956Z" fill="#263238"/>
<path d="M95.4267 32.8C97.6291 32.912 99.005 33.264 101.219 33.928V33.904C98.7804 32.888 97.7815 32.792 95.4147 32.704C95.3384 32.736 95.3424 32.8 95.4267 32.8Z" fill="#263238"/>
<path d="M95.7839 40.656C95.2102 40.924 95.3506 41.224 96.4458 41.476C97.541 41.728 102.094 41.804 101.934 43.388C101.773 44.972 95.3506 44.772 93.5574 44.212C91.7643 43.652 89.0645 42.116 89.0645 42.116C90.3361 41.904 93.3208 41.1 95.7839 40.656Z" fill="#E06A6D"/>
<path d="M66.0261 39.044C65.998 39.728 65.9338 40.424 65.8375 41.116C65.8375 41.088 65.8375 41.064 65.8656 41.04C65.998 40.68 66.1304 40.312 66.2908 39.964C66.2908 39.964 66.331 39.964 66.3269 39.964C66.2498 40.3453 66.1343 40.7179 65.9819 41.076C65.9097 41.248 65.8415 41.416 65.7653 41.584C65.7172 41.892 65.661 42.196 65.6008 42.5C65.4805 43.072 64.9389 45.504 64.7985 45.916C64.7745 46 64.6702 45.98 64.6782 45.884C64.7063 45.436 65.1596 42.904 65.2518 42.328C65.4311 41.2158 65.6708 40.1142 65.9699 39.028C65.99 39.008 66.0301 39.024 66.0261 39.044Z" fill="#263238"/>
<path d="M61.8536 57.232C60.7825 57.78 59.4025 58.632 53.1845 57.412C52.7833 57.332 52.4063 57.236 52.0131 57.12C46.1843 55.376 39.176 48.54 38.7949 48.056C38.7949 48.056 48.0577 33.084 59.9039 28.376C61.3682 27.796 63.7912 28.916 65.119 30.312C65.5964 30.812 66.6354 34.488 66.2382 37.464C65.8411 40.44 62.9206 56.684 61.8536 57.232Z" fill="#FFD801"/>
<path d="M61.0198 37.328C61.0645 37.9607 60.9757 38.5957 60.759 39.192C60.7082 38.5591 60.7972 37.9228 61.0198 37.328Z" fill="white"/>
<path d="M56.9798 47.524C57.0053 47.8388 56.9945 48.1556 56.9477 48.468C56.9091 48.7827 56.8323 49.0917 56.719 49.388C56.6914 49.0719 56.7022 48.7535 56.7511 48.44C56.7921 48.127 56.8688 47.8196 56.9798 47.524Z" fill="white"/>
<path d="M50.1163 39.816C50.1615 40.45 50.0726 41.0864 49.8555 41.684C49.8051 41.0498 49.8941 40.4123 50.1163 39.816Z" fill="white"/>
<path d="M63.6634 47.004C63.689 47.3202 63.6782 47.6383 63.6313 47.952C63.5926 48.2668 63.5159 48.5757 63.4026 48.872C63.375 48.5559 63.3858 48.2376 63.4347 47.924C63.4752 47.6096 63.552 47.3009 63.6634 47.004Z" fill="white"/>
<path d="M54.8496 38.496C55.1652 38.4692 55.4829 38.4786 55.7963 38.524C56.1122 38.5639 56.422 38.6418 56.719 38.756C56.0845 38.8014 55.4475 38.7128 54.8496 38.496Z" fill="white"/>
<path d="M47.0596 45.86C47.6941 45.8154 48.3309 45.904 48.929 46.12C48.2943 46.1707 47.6561 46.0819 47.0596 45.86Z" fill="white"/>
<path d="M56.2373 53.832C56.8718 53.7866 57.5089 53.8752 58.1067 54.092C57.472 54.142 56.8341 54.0532 56.2373 53.832Z" fill="white"/>
<path d="M44.6562 50.936C45.2908 50.8914 45.9276 50.9799 46.5257 51.196C45.891 51.2459 45.253 51.1572 44.6562 50.936Z" fill="white"/>
<path d="M60.959 30.16C61.5935 30.1154 62.2303 30.2039 62.8284 30.42C62.1939 30.4646 61.557 30.376 60.959 30.16Z" fill="white"/>
<path d="M58.6925 32.712C58.4897 32.9551 58.258 33.1727 58.0025 33.36C57.7539 33.5516 57.4849 33.7153 57.2002 33.848C57.4017 33.6064 57.6305 33.389 57.8822 33.2C58.1331 33.0076 58.4049 32.8439 58.6925 32.712Z" fill="white"/>
<path d="M46.341 39.964C46.1358 40.205 45.9028 40.4211 45.647 40.608C45.401 40.8033 45.1315 40.9672 44.8447 41.096C45.0511 40.856 45.2839 40.64 45.5387 40.452C45.7854 40.2575 46.0548 40.0937 46.341 39.964Z" fill="white"/>
<path d="M61.7659 43.236C61.5607 43.4782 61.3277 43.6957 61.0719 43.884C60.8252 44.0784 60.5558 44.2423 60.2695 44.372C60.4747 44.1297 60.7077 43.9123 60.9635 43.724C61.2115 43.5315 61.4807 43.3677 61.7659 43.236Z" fill="white"/>
<path d="M51.7766 49.508C51.5714 49.7502 51.3385 49.9677 51.0826 50.156C50.8356 50.3499 50.5662 50.5137 50.2803 50.644C50.4855 50.4018 50.7184 50.1843 50.9743 49.996C51.2223 49.8035 51.4914 49.6398 51.7766 49.508Z" fill="white"/>
<path d="M65.593 34.668C65.3878 34.9102 65.1549 35.1277 64.899 35.316C64.6504 35.5076 64.3813 35.6713 64.0967 35.804C64.3019 35.5617 64.5348 35.3443 64.7907 35.156C65.0377 34.9621 65.3071 34.7983 65.593 34.668Z" fill="white"/>
<path d="M65.3844 41.936C65.1415 41.7314 64.9234 41.4991 64.7345 41.244C64.5393 40.9982 64.3749 40.7296 64.2451 40.444C64.4889 40.6462 64.7071 40.8773 64.895 41.132C65.0867 41.3817 65.2508 41.6512 65.3844 41.936Z" fill="white"/>
<path d="M43.1198 46.944C42.8768 46.7394 42.6587 46.5071 42.4699 46.252C42.2768 46.0047 42.1126 45.7363 41.9805 45.452C42.2234 45.6566 42.4415 45.8889 42.6303 46.144C42.8248 46.3903 42.9891 46.6589 43.1198 46.944Z" fill="white"/>
<path d="M62.6764 52.9C62.4326 52.6978 62.2144 52.4667 62.0265 52.212C61.8343 51.9641 61.6702 51.6958 61.5371 51.412C61.78 51.6166 61.9982 51.8489 62.187 52.104C62.3806 52.3495 62.5448 52.6166 62.6764 52.9Z" fill="white"/>
<path d="M52.8756 35.92C52.6328 35.7168 52.4147 35.4859 52.2257 35.232C52.0343 34.9836 51.8703 34.7154 51.7363 34.432C51.9801 34.6342 52.1984 34.8653 52.3862 35.12C52.5776 35.3684 52.7417 35.6366 52.8756 35.92Z" fill="white"/>
<path d="M53.0485 56.292C52.8055 56.0874 52.5874 55.8551 52.3986 55.6C52.2061 55.3523 52.042 55.084 51.9092 54.8C52.153 55.0022 52.3712 55.2332 52.5591 55.488C52.7521 55.7367 52.9163 56.0064 53.0485 56.292Z" fill="white"/>
<path d="M54.7134 44.276C54.4728 44.0702 54.2561 43.8381 54.0675 43.584C53.8717 43.3387 53.7073 43.0699 53.5781 42.784C53.8198 42.9887 54.0366 43.2209 54.224 43.476C54.419 43.7219 54.5833 43.9906 54.7134 44.276Z" fill="white"/>
<path d="M62.9489 34.3C61.4366 34.02 60.0165 30.904 59.8359 28.808C59.8359 28.664 60.542 27.524 61.3483 26.096C61.8377 25.228 62.3552 24.248 62.7684 23.32C62.8527 23.132 63.3461 23.768 63.3461 23.768L64.4212 24.568L67.9714 27.284C67.126 28.2955 66.408 29.4065 65.8333 30.592C65.7765 30.7205 65.7335 30.8545 65.7049 30.992C65.7033 31.0146 65.7033 31.0374 65.7049 31.06C65.4843 31.852 64.4051 34.568 62.9489 34.3Z" fill="#E06A6D"/>
<path d="M65.705 31.012C65.7034 31.0346 65.7034 31.0573 65.705 31.08C65.4942 31.0184 65.2889 30.9394 65.0912 30.844C61.204 29.028 62.9169 23.836 62.9169 23.836L64.4413 24.588L67.9916 27.304C67.1462 28.3155 66.4281 29.4264 65.8534 30.612C65.7898 30.7397 65.74 30.8737 65.705 31.012Z" fill="#263238"/>
<path d="M72.0518 16.232C72.0518 16.232 73.8289 17.356 73.8369 19.356C73.8449 21.356 73.0346 23.312 72.8661 23.384C72.6976 23.456 72.0518 16.232 72.0518 16.232Z" fill="#3D1E1F"/>
<path d="M63.234 17.272C62.1669 19.372 62.223 25.992 63.5549 27.696C65.4885 30.168 69.2112 31.02 71.4617 28.576C73.64 26.208 73.4154 17.584 71.8629 15.976C69.6044 13.6 64.8145 14.164 63.234 17.272Z" fill="#E06A6D"/>
<path d="M68.8979 22.572C68.8979 22.572 68.8618 22.596 68.8658 22.612C68.8898 23.064 68.8417 23.584 68.4365 23.744C68.4365 23.744 68.4365 23.772 68.4365 23.768C68.938 23.688 68.9941 22.996 68.8979 22.572Z" fill="#263238"/>
<path d="M68.4848 22.112C67.7547 22.072 67.7306 23.528 68.4086 23.564C69.0865 23.6 69.0945 22.144 68.4848 22.112Z" fill="#263238"/>
<path d="M71.373 22.556C71.373 22.556 71.4091 22.556 71.4091 22.596C71.385 23.048 71.4372 23.568 71.8463 23.724C71.8463 23.724 71.8463 23.752 71.8463 23.748C71.3409 23.672 71.2807 22.98 71.373 22.556Z" fill="#263238"/>
<path d="M71.7868 22.092C72.5129 22.048 72.549 23.504 71.8751 23.544C71.2011 23.584 71.1771 22.128 71.7868 22.092Z" fill="#263238"/>
<path d="M68.0278 21.004C68.2195 20.9496 68.4083 20.8855 68.5934 20.812C68.8041 20.774 68.9961 20.667 69.139 20.508C69.1737 20.4498 69.1882 20.3818 69.1802 20.3145C69.1722 20.2473 69.1422 20.1845 69.0949 20.136C68.9863 20.0537 68.8577 20.0018 68.7223 19.9856C68.5869 19.9694 68.4496 19.9896 68.3246 20.044C68.0539 20.1163 67.8196 20.2858 67.6667 20.52C67.6362 20.5757 67.6223 20.639 67.6268 20.7023C67.6312 20.7656 67.6538 20.8264 67.6918 20.8773C67.7298 20.9282 67.7816 20.9673 67.8412 20.9897C67.9007 21.0122 67.9655 21.0171 68.0278 21.004Z" fill="#263238"/>
<path d="M72.2846 21.648C72.0894 21.6045 71.8966 21.5511 71.7069 21.488C71.4955 21.4601 71.2994 21.363 71.1493 21.212C71.1106 21.1563 71.092 21.0893 71.0963 21.0218C71.1007 20.9543 71.1278 20.8902 71.1733 20.84C71.2768 20.7518 71.4022 20.693 71.5363 20.6698C71.6704 20.6465 71.8083 20.6597 71.9355 20.708C72.21 20.7647 72.4532 20.9216 72.6175 21.148C72.6519 21.2015 72.6699 21.2639 72.6694 21.3275C72.6688 21.3911 72.6497 21.4532 72.6145 21.5062C72.5792 21.5592 72.5292 21.6008 72.4706 21.6259C72.4121 21.6511 72.3474 21.6588 72.2846 21.648Z" fill="#263238"/>
<path d="M67.8711 26.848C67.9794 26.956 68.0837 27.1 68.2481 27.116C68.4168 27.1159 68.5835 27.0805 68.7376 27.012C68.7376 27.012 68.7656 27.012 68.7376 27.036C68.6718 27.1239 68.5833 27.1923 68.4816 27.2339C68.3798 27.2755 68.2686 27.2886 68.1599 27.272C68.0683 27.2471 67.986 27.1959 67.9232 27.1248C67.8605 27.0537 67.82 26.9658 67.8069 26.872C67.8037 26.8635 67.804 26.8541 67.8078 26.8458C67.8115 26.8376 67.8184 26.8312 67.8269 26.828C67.8354 26.8248 67.8449 26.8251 67.8531 26.8289C67.8614 26.8326 67.8679 26.8395 67.8711 26.848Z" fill="#263238"/>
<path d="M70.4948 24.92C70.4948 24.92 70.5149 25.592 70.4948 25.908C69.8784 25.8428 69.2559 25.8643 68.6455 25.972C68.5011 26.004 68.5171 25.888 68.6816 25.812C69.1733 25.5879 69.7209 25.5155 70.2541 25.604C70.2862 25.52 70.202 24.564 70.2541 24.568C70.4968 24.6155 70.7317 24.6963 70.9521 24.808C70.9521 23.4 70.7275 22.008 70.7476 20.6C70.7476 20.552 70.8238 20.544 70.8318 20.6C71.1169 22.0895 71.2513 23.6037 71.233 25.12C71.237 25.292 70.6152 24.984 70.4948 24.92Z" fill="#263238"/>
<path d="M69.5925 25.668C69.4326 26.0874 69.1359 26.441 68.7501 26.672C68.1444 26.916 67.9478 26.368 68.5575 25.872C68.8773 25.7108 69.2353 25.6403 69.5925 25.668Z" fill="#263238"/>
<path d="M68.9627 26.548C68.8986 26.6 68.8269 26.6418 68.7501 26.672C68.1925 26.896 67.9718 26.452 68.4211 26.004C68.726 26.028 69.075 26.14 68.9627 26.548Z" fill="#FF99BA"/>
<path d="M62.9288 22.932C63.6629 23.156 64.5053 20.956 64.746 20.132C64.9546 19.388 65.1953 17.024 65.2314 16.86C65.2675 16.696 68.4407 18.952 70.278 18.416C72.1153 17.88 73.3629 16.22 73.391 15.448C73.4191 14.676 71.1204 12.716 69.1347 12.616C67.149 12.516 64.4572 15.016 64.4572 15.016C64.7823 14.6481 65.0775 14.2548 65.3397 13.84C65.3077 13.752 64.0239 14.264 63.7873 15.176C63.7873 15.176 64.044 14.028 63.9477 14.008C63.8514 13.988 62.8526 14.968 63.0772 15.712C63.0772 15.712 61.9219 16.708 61.8176 17.8C61.7133 18.892 62.0663 22.668 62.9288 22.932Z" fill="#3D1E1F"/>
<path d="M71.5936 18C71.0472 18.2954 70.4587 18.5058 69.8486 18.624C69.1637 18.6849 68.4744 18.5749 67.8428 18.304C67.2065 18.0589 66.6154 17.7101 66.0937 17.272C65.6324 16.896 65.2192 16.436 64.7258 16.1C64.6014 16.012 64.461 16.192 64.5372 16.304C65.3604 17.4634 66.5365 18.3274 67.8909 18.768C68.52 18.9725 69.1915 19.0107 69.8398 18.8789C70.4881 18.7471 71.0911 18.4498 71.5896 18.016C71.5896 18.016 71.6016 18 71.5936 18Z" fill="#263238"/>
<path d="M63.6957 22.736C63.6957 22.736 62.5564 20.432 61.5295 20.804C60.5025 21.176 61.1283 24.364 62.1834 24.948C62.3126 25.0314 62.4574 25.0879 62.609 25.1141C62.7607 25.1403 62.9161 25.1357 63.066 25.1006C63.2158 25.0655 63.357 25.0006 63.4811 24.9098C63.6051 24.8189 63.7095 24.704 63.788 24.572L63.6957 22.736Z" fill="#E06A6D"/>
<path d="M61.7334 21.712C61.7334 21.712 61.7093 21.712 61.7334 21.744C62.4635 22.176 62.7603 22.944 62.9368 23.744C62.9036 23.6593 62.8523 23.5828 62.7865 23.5198C62.7207 23.4568 62.642 23.4088 62.5558 23.3792C62.4696 23.3495 62.3779 23.3389 62.2872 23.348C62.1964 23.3571 62.1088 23.3858 62.0302 23.432C62.0061 23.432 62.0302 23.476 62.0302 23.476C62.1737 23.4537 62.3206 23.4764 62.4507 23.5409C62.5807 23.6053 62.6875 23.7084 62.7563 23.836C62.8711 24.0496 62.9626 24.2749 63.0291 24.508C63.0532 24.584 63.1855 24.564 63.1735 24.48C63.346 23.484 62.7844 21.976 61.7334 21.712Z" fill="#263238"/>
<path d="M56.173 33.024C55.3707 37.556 60.2969 52.824 63.454 55.676C68.1516 59.916 76.8367 62.704 79.9858 63.612C81.3578 64.012 85.1527 54.384 83.7647 53.748C80.7921 52.4 71.5574 49.52 70.6789 48.8C69.8004 48.08 64.5051 40.452 62.1462 36.06C58.9891 30.148 56.5701 30.732 56.173 33.024Z" fill="#E06A6D"/>
<path d="M81.4262 52.9C81.4262 52.9 85.526 53.944 88.1697 54.748C89.6459 55.2 92.109 56.196 93.0437 57.02C94.4398 58.256 99.4864 64.304 98.0422 65.556C96.7344 66.692 93.0598 60.944 93.0598 60.944C93.0598 60.944 97.28 66.416 95.4667 67.492C93.6535 68.568 90.3359 61.524 90.3359 61.524C90.3359 61.524 94.5441 67.244 92.4861 68.056C90.9296 68.668 87.592 62.456 87.592 62.456C87.592 62.456 91.1784 67.396 89.5978 68.096C87.8568 68.872 84.4188 63.328 84.4188 63.328C80.1184 64.436 77.5991 63.208 75.9423 62.128C75.5532 61.864 81.4262 52.9 81.4262 52.9Z" fill="#E06A6D"/>
<path d="M91.7207 58.956C92.2422 59.58 92.7717 60.212 93.2331 60.88C93.6944 61.548 94.1317 62.236 94.5288 62.944C95.0669 63.8597 95.4976 64.8341 95.8125 65.848C95.1225 64.088 93.5059 61.668 93.0445 61C92.5832 60.332 92.154 59.64 91.6966 58.972C91.6846 58.956 91.7087 58.94 91.7207 58.956Z" fill="#263238"/>
<path d="M89.2689 60.576C90.1595 61.28 92.0248 63.896 92.7429 65.652C92.775 65.724 92.7429 65.72 92.6908 65.652C92.1291 64.784 89.8506 61.424 89.2488 60.588C89.2368 60.576 89.2568 60.564 89.2689 60.576Z" fill="#263238"/>
<path d="M86.9143 61.6C88.0209 62.7573 88.8951 64.115 89.4898 65.6C89.5179 65.672 89.4617 65.66 89.4176 65.6C88.5872 64.252 87.9453 63.2 86.8702 61.636C86.8541 61.6 86.8903 61.564 86.9143 61.6Z" fill="#263238"/>
<path d="M60.6506 33.356C56.9881 28.192 54.7977 30.104 55.5319 35.712C56.2218 40.956 58.0632 47.204 58.0632 47.204L67.2898 42.74C67.2898 42.74 62.9814 36.664 60.6506 33.356Z" fill="#FFD801"/>
<path d="M62.8767 35.388C62.9983 35.6797 63.0858 35.9844 63.1375 36.296C63.1938 36.6087 63.214 36.9267 63.1977 37.244C63.0773 36.9508 62.9912 36.6448 62.9409 36.332C62.8813 36.0211 62.8597 35.7041 62.8767 35.388Z" fill="white"/>
<path d="M57.4092 38.528C57.998 38.2892 58.6316 38.1801 59.2666 38.208C58.9739 38.328 58.6683 38.4139 58.3559 38.464C58.0441 38.5234 57.7262 38.5449 57.4092 38.528Z" fill="white"/>
<path d="M57.6457 30.496C57.3973 31.0806 57.0267 31.6056 56.5586 32.036C56.807 31.4514 57.1777 30.9264 57.6457 30.496Z" fill="white"/>
<path d="M65.4641 40.94C65.3423 41.2325 65.1875 41.5103 65.0028 41.768C64.8228 42.0289 64.6128 42.2679 64.377 42.48C64.6254 41.8954 64.996 41.3704 65.4641 40.94Z" fill="white"/>
<path d="M59.0455 44.072C58.7514 43.952 58.4726 43.7976 58.215 43.612C57.9532 43.4327 57.7135 43.2233 57.501 42.988C58.0873 43.2357 58.6138 43.6052 59.0455 44.072Z" fill="white"/>
<path d="M61.8543 34.912C62.3477 35.588 62.8572 36.248 63.3626 36.912C63.2342 36.576 63.1219 36.236 63.0256 35.892H63.0497C63.15 36.156 63.2663 36.416 63.3626 36.692L63.507 37.092C63.5195 37.1193 63.5302 37.1473 63.5391 37.176C63.9403 37.692 64.3414 38.208 64.7105 38.736C65.1638 39.368 65.6011 40.008 66.0424 40.648C66.4836 41.288 66.9289 42.084 67.4063 42.728C67.4504 42.784 66.604 43.128 66.5117 43.172C66.4195 43.216 66.3713 43.14 66.4596 43.112C66.5478 43.084 67.2218 42.672 67.2298 42.664C66.7885 42.016 66.2791 41.42 65.8177 40.792C65.3564 40.164 64.8991 39.536 64.4538 38.9C63.5512 37.604 62.7248 36.26 61.8262 34.96L61.8543 34.912Z" fill="#263238"/>
<path d="M55.7479 39.424C55.8883 39.696 56.0407 39.964 56.149 40.244L56.3015 40.592C56.0889 39.596 55.9003 38.592 55.6797 37.596C56.1049 39.196 56.5342 40.832 56.9273 42.456C57.3004 44.008 57.7537 45.576 57.9703 47.16C58.2501 47.0376 58.54 46.9399 58.8368 46.868C58.5389 47.0602 58.2182 47.2148 57.8821 47.328C57.3985 45.7173 56.9968 44.0832 56.6786 42.432C56.5783 41.984 56.486 41.536 56.3897 41.088C56.2854 40.816 56.1611 40.556 56.0367 40.288C55.9124 40.02 55.8 39.72 55.6877 39.436C55.7118 39.42 55.7399 39.404 55.7479 39.424Z" fill="#263238"/>
<path d="M58.1995 45.66C59.4833 44.94 64.8467 42.172 66.0462 41.66C66.1305 41.624 66.1746 41.66 66.0903 41.716C63.5444 43.1911 60.9196 44.5264 58.2276 45.716C58.1955 45.724 58.1634 45.68 58.1995 45.66Z" fill="#263238"/>
<path d="M205.196 150.82H82.9707L100.642 50.88H222.867L205.196 150.82Z" fill="#FFD801"/>
<path d="M142.475 40.528H102.475L100.642 50.88H143.449L142.475 40.528Z" fill="#FFD801"/>
<g opacity="0.1">
<path d="M205.196 150.82H82.9707L100.642 50.88H222.867L205.196 150.82Z" fill="#212221"/>
<path d="M142.475 40.528H102.475L100.642 50.88H143.449L142.475 40.528Z" fill="#212221"/>
</g>
<path d="M98.1586 44.752C97.8911 43.6073 97.8911 42.4167 98.1586 41.272C98.4261 42.4167 98.4261 43.6073 98.1586 44.752Z" fill="#263238"/>
<path d="M94.6036 45.776C94.1951 45.3537 93.8432 44.8804 93.5565 44.368C93.2559 43.8663 93.02 43.3287 92.8545 42.768C93.2642 43.1878 93.6162 43.6599 93.9015 44.172C94.2015 44.6755 94.4373 45.2143 94.6036 45.776Z" fill="#263238"/>
<path d="M92.0363 48.436C90.9091 48.0943 89.8756 47.499 89.0156 46.696C89.578 46.859 90.1172 47.0929 90.6203 47.392C91.1342 47.6797 91.6099 48.0304 92.0363 48.436Z" fill="#263238"/>
<path d="M91.1375 52.02C89.9896 52.2867 88.7954 52.2867 87.6475 52.02C88.7954 51.7533 89.9896 51.7533 91.1375 52.02Z" fill="#263238"/>
<path d="M92.1808 55.564C91.7554 55.9692 91.2811 56.3199 90.7687 56.608C90.2657 56.9071 89.7265 57.141 89.1641 57.304C89.5876 56.8967 90.0623 56.5458 90.5762 56.26C91.0784 55.9594 91.6178 55.7255 92.1808 55.564Z" fill="#263238"/>
<path d="M94.8447 58.12C94.5031 59.2457 93.906 60.2778 93.0996 61.136C93.263 60.5745 93.499 60.0367 93.8016 59.536C94.0876 59.0218 94.4381 58.5459 94.8447 58.12Z" fill="#263238"/>
<path d="M98.439 59.004C98.5788 59.5733 98.6462 60.1579 98.6396 60.744C98.6482 61.3302 98.5808 61.9151 98.439 62.484C98.2952 61.9154 98.2278 61.3303 98.2384 60.744C98.2317 60.1579 98.2991 59.5733 98.439 59.004Z" fill="#263238"/>
<path d="M101.993 58C102.402 58.4223 102.754 58.8956 103.04 59.408C103.342 59.9088 103.576 60.4467 103.738 61.008C102.932 60.1498 102.335 59.1177 101.993 57.992V58Z" fill="#263238"/>
<path d="M104.557 55.32C105.12 55.4815 105.659 55.7155 106.161 56.016C106.675 56.3018 107.15 56.6527 107.573 57.06C107.01 56.8985 106.471 56.6646 105.969 56.364C105.455 56.0782 104.98 55.7273 104.557 55.32Z" fill="#263238"/>
<path d="M105.443 51.736C106.593 51.4694 107.788 51.4694 108.937 51.736C107.788 52.0026 106.593 52.0026 105.443 51.736Z" fill="#263238"/>
<path d="M104.416 48.192C104.841 47.7872 105.315 47.4377 105.828 47.152C106.33 46.8486 106.869 46.6132 107.433 46.452C106.572 47.2561 105.537 47.8515 104.408 48.192H104.416Z" fill="#263238"/>
<path d="M101.749 45.636C101.914 45.0759 102.149 44.5384 102.447 44.036C102.734 43.5236 103.086 43.0504 103.494 42.628C103.332 43.1893 103.097 43.7272 102.796 44.228C102.509 44.7404 102.157 45.2137 101.749 45.636Z" fill="#263238"/>
<path d="M205.015 150.82H82.529L65.1348 54.508H187.625L205.015 150.82Z" fill="#FFD801"/>
<path d="M107.581 113.384C110.392 113.384 112.672 111.111 112.672 108.308C112.672 105.505 110.392 103.232 107.581 103.232C104.769 103.232 102.49 105.505 102.49 108.308C102.49 111.111 104.769 113.384 107.581 113.384Z" fill="#263238" fill-opacity="0.5"/>
<path d="M147.826 113.384C150.638 113.384 152.917 111.111 152.917 108.308C152.917 105.505 150.638 103.232 147.826 103.232C145.015 103.232 142.735 105.505 142.735 108.308C142.735 111.111 145.015 113.384 147.826 113.384Z" fill="#263238" fill-opacity="0.5"/>
<rect x="117.479" y="120.609" width="20" height="1.73914" fill="#263238" fill-opacity="0.5"/>
</svg>
