<svg width="18" height="19" viewBox="0 0 18 19" fill="none" xmlns="http://www.w3.org/2000/svg">
<g id="g1248">
<g id="g1250">
<g id="Clip path group">
<mask id="mask0_4229_5285" style="mask-type:luminance" maskUnits="userSpaceOnUse" x="0" y="0" width="18" height="19">
<g id="clipPath1256">
<path id="path1254" d="M0 0.368166H18V18.3682H0V0.368166Z" fill="white"/>
</g>
</mask>
<g mask="url(#mask0_4229_5285)">
<g id="g1252">
<g id="g1258">
<path id="path1260" d="M9.52734 5.14941C9.52734 5.44065 9.76345 5.67676 10.0547 5.67676C10.3459 5.67676 10.582 5.44065 10.582 5.14941C10.582 4.85818 10.3459 4.62207 10.0547 4.62207C9.76345 4.62207 9.52734 4.85818 9.52734 5.14941Z" fill="#595959"/>
</g>
<g id="g1262">
<path id="path1264" d="M11.6367 5.14941C11.6367 5.44065 11.8728 5.67676 12.1641 5.67676C12.4553 5.67676 12.6914 5.44065 12.6914 5.14941C12.6914 4.85818 12.4553 4.62207 12.1641 4.62207C11.8728 4.62207 11.6367 4.85818 11.6367 5.14941Z" fill="#595959"/>
</g>
<g id="g1266">
<path id="path1268" d="M13.7461 5.14941C13.7461 5.44065 13.9822 5.67676 14.2734 5.67676C14.5647 5.67676 14.8008 5.44065 14.8008 5.14941C14.8008 4.85818 14.5647 4.62207 14.2734 4.62207C13.9822 4.62207 13.7461 4.85818 13.7461 5.14941Z" fill="#595959"/>
</g>
<g id="g1270">
<path id="path1272" d="M8.16374 13.5869L9.74577 12.5322L12.9023 13.5869V15.6963C12.9023 16.2788 12.4376 16.751 11.8551 16.751C6.03028 16.751 0.527344 11.2832 0.527344 5.45833C0.527344 4.87586 0.999562 4.41113 1.58203 4.41113H3.69141L4.74609 7.56771L3.69141 9.14974C4.36489 10.8335 6.48 12.9134 8.16374 13.5869Z" stroke="#595959" stroke-miterlimit="10" stroke-linecap="round" stroke-linejoin="round"/>
</g>
<g id="g1274">
<path id="path1276" d="M6.89062 5.14941C6.89062 6.89689 8.30721 8.31348 10.0547 8.31348V10.4229L12.1641 8.31348H14.2734C16.0209 8.31348 17.4727 6.89689 17.4727 5.14941C17.4727 3.40194 16.0209 1.98535 14.2734 1.98535H10.0547C8.30721 1.98535 6.89062 3.40194 6.89062 5.14941Z" stroke="#595959" stroke-miterlimit="10" stroke-linecap="round" stroke-linejoin="round"/>
</g>
</g>
</g>
</g>
</g>
</g>
</svg>
