<svg xmlns="http://www.w3.org/2000/svg" width="18" height="18" viewBox="0 0 18 18" fill="none">
  <path fill-rule="evenodd" clip-rule="evenodd" d="M13.6035 15.7167C13.2056 16.2491 12.8243 16.6807 12.2867 17.2059C12.1808 17.3096 12.0565 17.3621 11.9173 17.3621C11.8782 17.3621 11.8378 17.358 11.7973 17.3496C6.96434 16.3487 1.65087 11.0356 0.65013 6.20228C0.611862 6.01717 0.661468 5.84791 0.793669 5.71277C1.31872 5.1755 1.75047 4.79406 2.28289 4.39615C2.42324 4.29137 2.58828 4.23592 2.7602 4.23592C3.02071 4.23592 3.25691 4.35919 3.40927 4.57441L4.97339 6.78706C5.17755 7.07574 5.19343 7.43078 5.01616 7.73649L4.24549 9.06739C4.18249 9.17617 4.18915 9.31167 4.2625 9.41358C5.39607 10.9872 7.01214 12.6034 8.58607 13.737C8.6878 13.8105 8.82344 13.8172 8.93225 13.7542L10.2631 12.9835C10.4038 12.9018 10.553 12.8605 10.7069 12.8605C10.8843 12.8605 11.0589 12.9178 11.2124 13.0264L13.4252 14.5906C13.6038 14.7167 13.7204 14.9033 13.754 15.1158C13.7876 15.3283 13.7341 15.5418 13.6035 15.7167ZM13.7933 14.0696L11.5806 12.5054C11.3192 12.3205 11.0168 12.2226 10.7069 12.2226C10.4433 12.2226 10.1791 12.2948 9.94351 12.4314L8.79276 13.098C7.38 12.0512 5.94808 10.6194 4.90135 9.207L5.56835 8.0561C5.86903 7.53668 5.84079 6.90934 5.49429 6.41898L3.92989 4.20633C3.66091 3.82543 3.22367 3.59805 2.7602 3.59805C2.44981 3.59805 2.1526 3.69748 1.90099 3.88541C1.34047 4.30423 0.887212 4.70452 0.337539 5.26688C0.0583619 5.55258 -0.0554137 5.94053 0.02548 6.33143C0.525157 8.74375 2.09831 11.414 4.34187 13.6576C6.58556 15.9013 9.25587 17.4746 11.6682 17.9741C11.751 17.9914 11.8349 18 11.9172 18C12.2243 18 12.5065 17.8831 12.7329 17.662C13.2953 17.1121 13.6956 16.6591 14.1144 16.0986C14.3489 15.7845 14.445 15.4001 14.384 15.0161C14.3234 14.6321 14.1136 14.2959 13.7933 14.0696ZM15.9072 9.265C15.395 9.00588 14.8156 8.80572 14.1966 8.6709C14.378 7.85859 14.4805 6.9424 14.5 6.03174H17.3507C17.2738 7.28688 16.7376 8.41993 15.9072 9.265ZM7.22194 6.03174C7.29982 7.28692 7.83628 8.41993 8.66541 9.265C9.17816 9.00588 9.75788 8.80572 10.3769 8.6709C10.1955 7.85859 10.093 6.9424 10.0735 6.03174H7.22194ZM8.66541 2.16085C7.83628 3.00593 7.29982 4.1388 7.22194 5.39398H10.0735C10.0931 4.48345 10.1955 3.56722 10.3769 2.75478C9.75788 2.61996 9.17816 2.42001 8.66541 2.16085ZM13.4408 0.770173C14.1619 0.938622 14.8241 1.26117 15.3915 1.70111C14.9775 1.8872 14.5209 2.03357 14.0372 2.13732C13.8777 1.60002 13.6785 1.13109 13.4408 0.770173ZM10.5363 2.13732C10.0523 2.03357 9.59553 1.8872 9.1817 1.70111C9.74906 1.26117 10.4117 0.938587 11.1328 0.770173C10.895 1.13109 10.6955 1.60002 10.5363 2.13732ZM12.2867 0.637724C12.6463 0.637724 13.0836 1.21277 13.4068 2.24593C13.0418 2.29401 12.6665 2.31927 12.2867 2.31927C11.9065 2.31927 11.5313 2.29401 11.1666 2.2461C11.4899 1.21277 11.9271 0.637724 12.2867 0.637724ZM10.7111 5.39398H13.8622C13.8426 4.4178 13.7335 3.56793 13.5733 2.86693C13.1545 2.9262 12.7229 2.95714 12.2867 2.95714C11.8501 2.95714 11.4191 2.9262 11.0003 2.86693C10.84 3.56793 10.7309 4.41783 10.7111 5.39398ZM12.2867 8.46872C12.7228 8.46872 13.1544 8.49965 13.5732 8.55896C13.7335 7.85792 13.8426 7.00788 13.8621 6.03174H10.711C10.7309 7.00788 10.84 7.85792 11.0002 8.55896C11.4191 8.49965 11.8501 8.46872 12.2867 8.46872ZM11.1327 10.6557C10.895 10.2948 10.6955 9.8257 10.5363 9.28853C10.0523 9.39232 9.59553 9.53865 9.1817 9.72461C9.74902 10.1647 10.4116 10.4873 11.1327 10.6557ZM14.0372 9.28853C13.8777 9.8257 13.6785 10.2948 13.4408 10.6557C14.1619 10.4873 14.8241 10.1647 15.3915 9.72461C14.9775 9.53862 14.5209 9.39228 14.0372 9.28853ZM12.2867 10.788C12.6463 10.788 13.0836 10.2131 13.4068 9.17979C13.0418 9.13181 12.6665 9.10658 12.2867 9.10658C11.9065 9.10658 11.5313 9.13185 11.1666 9.17979C11.4899 10.2131 11.9271 10.788 12.2867 10.788ZM17.3507 5.39398H14.5C14.4804 4.48345 14.378 3.56722 14.1966 2.75478C14.8156 2.61996 15.3949 2.42001 15.9072 2.16085C16.7376 3.00593 17.2738 4.13883 17.3507 5.39398ZM12.2867 0C9.13642 0 6.57387 2.56284 6.57387 5.71294C6.57387 8.86298 9.13638 11.4258 12.2867 11.4258C15.4367 11.4258 17.9989 8.86298 17.9989 5.71294C17.9989 2.56284 15.4368 0 12.2867 0Z" fill="black"/>
</svg>
