<svg width="16" height="18" viewBox="0 0 16 18" fill="none" xmlns="http://www.w3.org/2000/svg">
<g id="Group 1000003660">
<path id="Ellipse 49 (Stroke)" fill-rule="evenodd" clip-rule="evenodd" d="M8.09951 6.42857C9.51968 6.42857 10.6709 5.2773 10.6709 3.85714C10.6709 2.43698 9.51968 1.28571 8.09951 1.28571C6.67935 1.28571 5.52809 2.43698 5.52809 3.85714C5.52809 5.2773 6.67935 6.42857 8.09951 6.42857ZM8.09951 7.71429C10.2298 7.71429 11.9567 5.98738 11.9567 3.85714C11.9567 1.7269 10.2298 0 8.09951 0C5.96927 0 4.24237 1.7269 4.24237 3.85714C4.24237 5.98738 5.96927 7.71429 8.09951 7.71429Z" fill="#D8D8D8"/>
<path id="Rectangle 17 (Stroke)" fill-rule="evenodd" clip-rule="evenodd" d="M11.25 11.3365H4.5C2.63604 11.3365 1.125 12.9638 1.125 14.9712V16.7885H14.625V14.9712C14.625 12.9638 13.114 11.3365 11.25 11.3365ZM4.5 10.125C2.01472 10.125 0 12.2947 0 14.9712V17.3942C0 17.7288 0.25184 18 0.5625 18H15.1875C15.4982 18 15.75 17.7288 15.75 17.3942V14.9712C15.75 12.2947 13.7353 10.125 11.25 10.125H4.5Z" fill="#D8D8D8"/>
</g>
</svg>
