<svg width="135" height="124" viewBox="0 0 135 124" fill="none" xmlns="http://www.w3.org/2000/svg">
<path opacity="0.1" d="M54.6681 68.7461V124H0V82.8809C0 66.6045 2.35823 51.8273 7.07469 38.5492C12.2199 24.8428 20.7953 11.9931 32.8008 0L54.0249 15.4197C45.4495 25.2712 39.2324 34.4801 35.3734 43.0466C31.9433 51.1848 29.7994 59.7513 28.9419 68.7461H54.6681ZM135 68.7461V124H80.332V82.8809C80.332 66.6045 82.6902 51.8273 87.4067 38.5492C92.5519 24.8428 101.127 11.9931 113.133 0L134.357 15.4197C125.781 25.2712 119.564 34.4801 115.705 43.0466C112.275 51.1848 110.131 59.7513 109.274 68.7461H135Z" fill="#D4D4D4"/>
</svg>
