<svg width="331" height="137" viewBox="0 0 331 137" fill="none" xmlns="http://www.w3.org/2000/svg">
<g style="mix-blend-mode:multiply" opacity="0.5">
<path d="M329.157 88.8373H321.042V70.2518H316.512V78.5269H310.051V75.8629V59.4581H299.472V76.8945L296.307 77.0064V59.4256H292.615V51.9337H290.4V46.9021H281.749V51.9337H279.534V59.4256H275.842V68.9494L274.138 69.0613L273.626 40.8457H262.234V55.8564L258.225 55.9683V32.5079H256.854V27.5569H244.827V32.5079H243.457V60.0242H240.924V54.2654H238.815V49.4442H235.756V35.3744H231.325V49.4442H228.265V54.2654H226.155V63.7959L223.518 63.7791V51.6036L198.284 52.4942L192.293 68.4359H189.657V62.733H183.088V24.3088H177.073V28.3345H174.329V59.5823H164.832V65.2851H156.779V51.9348L144.055 51.6193V70.9421L142.895 70.9578H141.417V54.28H139.306V49.4599H136.246V35.389H131.815V49.4599H128.754V54.28H126.644V64.1383H124.111V32.5236H122.739V27.5726H110.71V32.5236H109.338V55.9829L105.328 55.871V40.8614H98.9033L98.8002 69.077L96.99 68.9651V40.4765H88.0215V32.9845H85.8057V27.953H77.1526V32.9845H74.9357V59.4413H71.243V77.0221L68.0769 76.9102V59.4737L57.4947 71.0093V75.8786V78.5426H50.4375V137L191.437 136.992L329.157 136.984V88.8373Z" fill="#CBCBCB"/>
</g>
<path opacity="0.8" d="M243.809 10.8845C244.334 8.87007 246.384 7.3727 248.835 7.3727C249.273 7.37239 249.709 7.42123 250.134 7.51818C251.345 5.2475 253.969 3.67404 257.013 3.67404C257.777 3.67305 258.537 3.7744 259.272 3.97508C260.911 1.5925 263.888 0 267.288 0C271.334 0 274.781 2.25501 276.087 5.4109C277.052 4.94061 278.123 4.69653 279.208 4.69914C282.75 4.69914 285.629 7.22385 285.629 10.3372C285.629 10.52 285.619 10.7027 285.599 10.8845H243.809Z" fill="white"/>
<path d="M240.695 130.164C195.147 125.525 138.106 80.4821 99.4255 75.2279C58.6368 69.6883 16.7109 131.387 16.7109 131.387L240.695 130.853V130.164Z" fill="#F3F3F3"/>
<path d="M87.622 83.5642H85.6016V104.789H87.622V83.5642Z" fill="#CCCCCC"/>
<path d="M86.6106 42.3887L80.0156 92.9008H93.2057L86.6106 42.3887Z" fill="#D3D3D3"/>
<path d="M107.116 89.0447H105.305V104.999H107.116V89.0447Z" fill="#CCCCCC"/>
<path d="M106.461 60.5996L101.727 92.802H111.195L106.461 60.5996Z" fill="#D3D3D3"/>
<path d="M19.4233 103.526L17.959 100.675C16.9175 98.5407 17.7902 96.0574 19.9098 95.1274C25.2508 92.784 31.7088 95.2394 34.335 100.621L36.255 104.554C37.097 106.276 38.7927 107.351 40.5734 107.478C42.1923 107.595 43.6436 108.613 44.358 110.075L45.37 112.147C45.9038 113.237 46.182 114.425 46.1855 115.627C46.1889 116.829 45.9176 118.018 45.3901 119.111C45.074 119.777 44.914 120.5 44.9211 121.23C44.9283 121.96 45.1023 122.68 45.4314 123.34L46.8649 126.275C48.4484 129.52 47.1212 133.295 43.8986 134.708L42.0601 135.515C38.8375 136.928 34.9408 135.444 33.3561 132.2C31.8836 127.87 29.4463 126.067 27.3078 125.365C25.7238 124.839 24.2676 124.017 23.0259 122.947C21.7841 121.877 20.7822 120.581 20.0798 119.137L19.8767 118.723C19.1334 117.205 18.7399 115.554 18.7224 113.88C18.7049 112.207 19.0638 110.549 19.7752 109.017C20.3998 107.674 20.5652 105.864 19.4233 103.526Z" fill="#E0E0E0"/>
<path d="M266.714 129.925H268.734V108.7H266.714V129.925Z" fill="#CCCCCC"/>
<path d="M267.724 67.5249L274.319 118.037H261.129L267.724 67.5249Z" fill="#D3D3D3"/>
<path d="M0.4375 136.104C0.4375 136.104 41.1495 99.2853 93.6427 97.027C111.27 96.2727 183.449 111.493 244.23 123.456C246.785 123.958 310.487 136.208 319.16 136.572L0.4375 136.104Z" fill="#E1E1E1"/>
<path d="M284.871 136.359C284.871 136.359 295.507 122.97 302.199 120.915C308.891 118.861 302.584 127.017 302.584 127.017C302.584 127.017 314.457 114.713 318.813 115.826C322.808 116.843 318.813 124.469 318.813 124.469C318.813 124.469 323.312 120.246 328.767 120.246C334.221 120.246 324.551 136.059 324.551 136.059L284.871 136.359Z" fill="#D8D8D8"/>
<path d="M58.7316 136.359C58.7316 136.359 48.097 122.97 41.4039 120.915C34.7109 118.861 41.019 127.017 41.019 127.017C41.019 127.017 29.4644 112.077 25.1071 113.186C21.1135 114.202 22.7395 121.748 22.7395 121.748C22.7395 121.748 20.2916 120.243 14.8361 120.243C9.38061 120.243 19.0529 136.056 19.0529 136.056L58.7316 136.359Z" fill="#D8D8D8"/>
<path d="M57.327 132.21C57.3749 131.94 57.399 131.666 57.399 131.391C57.399 128.288 54.3288 125.772 50.5442 125.772C46.7596 125.772 43.6953 128.288 43.6953 131.391C43.6951 131.666 43.7196 131.94 43.7685 132.21H57.327Z" fill="#D3D3D3"/>
<path d="M74.5972 130.83C74.6462 130.447 74.6707 130.061 74.6705 129.675C74.6705 125.298 71.6003 121.75 67.8216 121.75C64.0429 121.75 60.9727 125.298 60.9727 129.675C60.9727 130.061 60.9967 130.447 61.0447 130.83H74.5972Z" fill="#D8D8D8"/>
<path d="M72.0849 136.587C72.036 136.316 72.0115 136.042 72.0117 135.768C72.0117 132.664 75.0819 130.149 78.8606 130.149C82.6393 130.149 85.7095 132.664 85.7095 135.768C85.7095 136.042 85.6854 136.316 85.6375 136.587H72.0849Z" fill="#D8D8D8"/>
<path d="M67.7887 127.508C65.3892 127.508 63.2472 128.633 61.8325 130.398C61.0861 130.231 60.3216 130.148 59.5547 130.149C55.2965 130.149 51.8438 132.664 51.8438 135.768C51.844 136.043 51.8712 136.317 51.9252 136.587H75.4169C75.4721 136.204 75.4997 135.818 75.4996 135.432C75.5043 131.055 72.0468 127.508 67.7887 127.508Z" fill="#D8D8D8"/>
<path d="M47.3789 136.458C47.3789 136.458 53.7732 136.783 55.6354 135.675C57.4976 134.567 56.0274 133.699 56.0274 133.699C56.0274 133.699 61.9399 133.577 61.9246 132.245C61.9092 130.912 60.4768 130.993 60.4768 130.993C60.4768 130.993 63.4608 129.071 62.9047 127.873C62.0497 126.032 57.1882 129.238 57.1882 129.238C57.1882 129.238 58.7823 127.447 57.494 127.025C53.9598 125.877 47.3789 136.458 47.3789 136.458Z" fill="#D8D8D8"/>
<path d="M294.518 136.517C294.518 136.517 287.58 136.869 285.56 135.664C283.539 134.459 285.135 133.521 285.135 133.521C285.135 133.521 278.719 133.389 278.736 131.954C278.752 130.52 280.306 130.597 280.306 130.597C280.306 130.597 277.068 128.511 277.673 127.211C278.601 125.214 283.875 128.692 283.875 128.692C283.875 128.692 282.146 126.746 283.543 126.292C287.377 125.034 294.518 136.517 294.518 136.517Z" fill="#D8D8D8"/>
<path d="M277.673 127.206C277.068 128.505 280.306 130.591 280.306 130.591C280.306 130.591 277.969 130.562 278.348 131.962C278.727 133.362 284.607 133.829 284.607 133.829C284.607 133.829 282.556 134.209 284.575 135.415C286.594 136.62 294.522 136.517 294.522 136.517L277.673 127.206Z" fill="#D3D3D3"/>
<path d="M27.8656 83.5861C27.8762 83.2582 28.3533 83.0042 28.6072 83.2951C28.8611 83.5861 28.8433 83.3891 29.0937 84.0147C29.8189 85.8257 30.8129 87.5293 32.0458 89.0742C34.3579 91.9839 36.6511 93.4578 39.2489 94.9137C38.1779 92.6274 37.46 90.1866 37.369 87.7246C37.336 86.8293 37.3537 85.8971 37.7587 85.0734C37.8768 84.8429 38.3066 84.8898 38.3491 85.1461C38.5676 86.4174 38.2464 87.3754 38.681 89.6494C39.7166 95.0749 43.8141 100.829 47.7664 104.859C47.0083 98.0327 46.641 90.284 48.0025 83.4026C48.2257 82.2734 48.5788 81.2001 48.9071 80.0978C48.985 79.8382 49.3735 79.949 49.3263 80.2097C49.2578 80.5757 48.6119 85.3118 48.5729 85.6374C47.9459 90.8782 48.071 96.6841 48.5587 101.976C51.6289 98.0416 53.6777 93.4387 54.6377 88.6322C54.9211 87.212 54.992 85.7448 55.3946 84.3504C55.4489 84.158 55.7843 84.1378 55.8256 84.3504C56.2342 86.4398 55.4171 90.1351 54.8207 92.1428C53.6554 96.12 51.6907 99.8466 49.0346 103.118C48.9319 103.245 53.2786 135.086 53.1617 135.489C52.9644 136.17 51.7151 136.648 51.5203 135.441C51.4412 134.95 49.0535 115.588 47.9777 106.621C47.5715 106.407 47.3094 106.03 46.262 104.914C43.8377 102.331 41.4406 99.1171 39.8382 96.0865C38.8758 96.0351 31.9336 92.8333 28.4891 85.5423C28.3899 85.333 27.9424 84.346 27.8786 84.1255C27.8125 83.9352 27.8597 83.773 27.8656 83.5861Z" fill="#AEAEAE" fill-opacity="0.7"/>
<path d="M37.29 68.2019C37.2112 66.8194 37.1719 65.4082 37.1719 63.9683C37.1719 47.9292 42.2649 34.9263 48.5481 34.9263C54.8314 34.9263 59.9244 47.9292 59.9244 63.9683C59.9244 65.4067 59.885 66.8179 59.8063 68.2019H37.29Z" fill="#E1E1E1"/>
<path d="M46.2086 85.9978C46.2878 85.0174 46.3267 84.0147 46.3267 82.9952C46.3267 71.6217 41.2337 62.4036 34.9505 62.4036C28.6672 62.4036 23.5742 71.6228 23.5742 82.9952C23.5742 84.0147 23.6155 85.0174 23.6923 85.9978H46.2086Z" fill="#E1E1E1"/>
<path d="M48.5859 52.7229C52.5665 52.7229 56.122 56.8479 58.4695 63.3175C59.6315 62.725 60.9288 62.4111 62.2482 62.4032C69.3156 62.4032 75.045 71.6224 75.045 82.9948C75.045 84.0143 74.999 85.0171 74.9104 85.9974H35.9237C35.8355 84.6149 35.7906 83.2037 35.7891 81.7638C35.7891 65.7214 41.5185 52.7229 48.5859 52.7229Z" fill="#E1E1E1"/>
<path d="M180.581 9.69468C180.273 10.5452 180.463 11.3733 180.998 11.5524C181.533 11.7315 182.225 11.1797 182.533 10.3292C182.842 9.47869 182.651 8.65055 182.117 8.47149C181.582 8.29243 180.886 8.84415 180.581 9.69468Z" fill="#FAFAFA"/>
<path d="M174.078 12.7118L177.258 11.6855C177.258 11.6855 177.598 12.874 176.214 13.3642C174.526 13.9618 174.078 12.7118 174.078 12.7118Z" fill="white"/>
<path d="M152.254 41.8836C152.184 42.2106 152.219 42.5498 152.353 42.8582C152.487 43.1666 152.714 43.4305 153.006 43.6165C153.298 43.8024 153.642 43.9021 153.994 43.9028C154.346 43.9036 154.69 43.8055 154.983 43.6208C155.277 43.4362 155.505 43.1733 155.641 42.8654C155.776 42.5576 155.812 42.2186 155.744 41.8913C155.677 41.564 155.508 41.2631 155.26 41.0267C155.011 40.7903 154.695 40.6289 154.35 40.5631C153.887 40.475 153.406 40.5646 153.013 40.8123C152.62 41.0599 152.347 41.4452 152.254 41.8836V41.8836Z" fill="#F5F5F5"/>
<path d="M189.1 84.8574C189.1 84.8574 188.859 86.406 188.495 86.8648C188.189 87.1963 187.819 87.469 187.404 87.6682L186.738 85.4328L189.1 84.8574Z" fill="white"/>
<path d="M180.461 119.933C180.461 119.933 180.594 120.789 180.415 121.134C180.236 121.479 179.329 123.788 179.329 125.544C179.329 127.301 178.795 133.982 178.741 134.238C178.688 134.494 178.474 135.011 178.832 135.224C179.19 135.436 181.137 135.137 181.137 135.137C181.137 135.137 183.082 134.924 183.306 134.795C183.531 134.666 182.991 134.324 182.809 134.238C182.627 134.151 181.453 133.34 181.274 133.039C181.095 132.737 181.046 132.785 181.046 132.354C181.046 131.924 182.132 127.6 182.763 125.929C183.394 124.259 184.023 122.292 184.119 121.532C184.173 121.091 184.203 120.648 184.21 120.204L180.461 119.933Z" fill="white"/>
<path d="M182.805 134.238C182.626 134.154 181.449 133.341 181.27 133.039L181.23 132.978C181.158 133.135 181.048 133.273 180.909 133.381C180.642 133.607 179.393 133.505 178.81 133.475C178.775 133.908 178.748 134.19 178.738 134.235C178.695 134.489 178.47 135.008 178.829 135.221C179.187 135.434 181.134 135.135 181.134 135.135C181.134 135.135 183.078 134.922 183.303 134.793C183.527 134.664 182.987 134.324 182.805 134.238Z" fill="#D6D6D6"/>
<path d="M187.149 120.62C187.149 120.62 187.012 121.603 186.921 121.948C186.83 122.292 186.199 124.388 186.199 125.749C186.199 127.11 187.002 129.947 187.002 130.93C187.002 131.913 186.964 134.881 186.964 135.137C186.964 135.393 187.28 135.482 187.552 135.523C187.825 135.563 190.625 135.439 191.211 135.396C191.797 135.353 192.794 135.142 192.658 134.889C192.521 134.636 191.617 134.717 191.032 134.331C190.446 133.946 189.371 133.168 189.371 133.168C189.371 133.168 189.28 132.408 189.28 132.055C189.28 131.703 189.548 127.643 190.082 126.016C190.617 124.388 190.671 122.074 190.714 121.562C190.756 121.05 190.895 119.892 190.895 119.892L187.149 120.62Z" fill="white"/>
<path d="M191.031 134.324C190.437 133.952 189.367 133.168 189.367 133.168C189.294 133.315 189.262 133.478 189.276 133.64V133.982L186.984 134.094C186.984 134.636 186.984 135.049 186.984 135.138C186.984 135.391 187.3 135.482 187.573 135.523C187.846 135.564 190.646 135.439 191.231 135.396C191.817 135.353 192.814 135.143 192.678 134.889C192.542 134.636 191.616 134.712 191.031 134.324Z" fill="#D6D6D6"/>
<path d="M179.889 90.1923C179.889 90.1923 178.8 90.134 178.8 92.0273C178.8 93.9206 179.707 96.1586 180.191 97.3042C180.675 98.4499 181.159 99.7704 181.159 99.7704C181.159 99.7704 178.669 106.654 178.255 109.065C177.84 111.475 177.348 116.808 177.225 117.38C177.102 117.953 176.984 118.929 176.984 118.929C176.984 118.929 178.193 120.422 182.189 120.703C186.184 120.985 188.607 120.817 190.239 120.589C191.436 120.387 192.612 120.08 193.75 119.672C193.75 119.672 193.87 111.067 192.659 107.797C191.905 105.73 191.28 103.623 190.787 101.486C190.787 101.486 190.169 97.763 190.118 95.2969C190.067 92.8308 189.514 91.0515 188.781 90.3647C188.048 89.6778 186.374 89.6195 185.877 89.5612C185.379 89.5029 180.488 89.7336 180.488 89.7336L180.127 90.134L179.889 90.1923Z" fill="#D6D6D6"/>
<path d="M188.791 90.3571C188.063 89.6677 186.384 89.6119 185.886 89.5536C185.389 89.4953 180.498 89.726 180.498 89.726L180.137 90.1264L179.893 90.1847C179.893 90.1847 178.805 90.1264 178.805 92.0197C178.833 92.9651 178.994 93.9027 179.283 94.8077C180.828 95.8135 182.688 96.29 184.557 96.1587C186.471 96.0411 188.349 95.6124 190.109 94.8914C190 92.6382 189.475 91.0135 188.791 90.3571Z" fill="white"/>
<path d="M181.528 85.2601C181.244 86.0148 180.813 86.7122 180.257 87.3156C179.289 88.4054 178.805 88.7501 178.987 89.6676C179.169 90.5851 180.559 91.4418 180.559 91.4418L180.982 90.1745C180.982 90.1745 180.559 91.9487 181.517 92.8713C182.112 93.4315 182.784 93.9132 183.515 94.3033C183.515 94.3033 183.333 93.1577 183.999 92.4683C184.433 92.0137 184.837 91.5347 185.21 91.0337L185.149 92.2402C186.008 91.8351 186.786 91.2913 187.449 90.6333C188.358 89.6575 188.115 87.7084 187.933 86.905C187.751 86.1015 187.63 84.9534 187.63 84.9534C187.63 84.9534 182.798 85.4324 181.528 85.2601Z" fill="#BDBDBD"/>
<path d="M179.227 84.3986C179.227 84.3986 180.318 86.1728 184.918 86.0613C189.518 85.9497 191.336 83.8258 191.871 83.1364C192.245 82.6492 192.572 82.1309 192.847 81.5878L189.156 80.7843C189.156 80.7843 188.309 78.2042 187.704 77.7429C187.1 77.2816 184.677 77.0535 183.465 77.4565C182.254 77.8595 182.195 79.2307 182.195 79.6362C182.195 80.0417 181.773 82.1707 181.773 82.1707L179.227 84.3986Z" fill="white"/>
<path d="M189.15 80.784L189.123 80.708C188.821 81.1845 188.038 82.0412 186.182 82.5303C185.451 82.7183 184.688 82.7644 183.939 82.666C183.189 82.5676 182.469 82.3266 181.82 81.9575C181.793 82.0843 181.78 82.1628 181.78 82.1628L181.496 82.4163C182.212 82.8352 183.011 83.1087 183.844 83.2195C184.677 83.3303 185.525 83.276 186.334 83.0601C188.474 82.4999 189.351 81.4633 189.682 80.9032L189.15 80.784Z" fill="#BDBDBD" fill-opacity="0.7"/>
<path d="M187.82 89.9618C187.82 89.9618 189.692 89.2167 190.543 90.8236C191.393 92.4305 191.816 98.2802 191.816 98.2802C191.816 98.2802 194.538 96.904 195.56 96.4452C196.213 96.1416 196.806 95.7344 197.314 95.2413L198.101 93.5761L198.948 92.8892L199.312 92.3823C199.312 92.3823 199.735 92.324 199.432 92.7828C199.27 93.0247 199.128 93.279 199.01 93.5431L200.347 92.7397C200.347 92.7397 200.831 93.0844 200.529 93.2466C200.32 93.3693 200.151 93.5449 200.042 93.7535C199.922 93.9259 199.983 95.1298 199.62 95.3021C199.256 95.4745 199.015 95.7609 198.59 95.9332C198.381 96.0134 198.179 96.1092 197.986 96.2196C197.986 96.2196 193.506 100.293 192.538 100.81C191.57 101.327 190.842 101.785 190.358 101.727C189.874 101.669 188.906 97.0231 188.724 95.3604C188.542 93.6978 188.058 93.3531 188.058 93.3531" fill="white"/>
<path d="M181.143 98.2342C179.185 95.21 179.95 91.1911 179.984 91.022L180.602 91.0777C180.602 91.1195 179.825 95.1484 181.711 98.0591L181.143 98.2342Z" fill="#C8C8C8" fill-opacity="0.8"/>
<path d="M182.319 98.1306C182.354 98.0673 185.584 92.0477 188.518 89.8122C188.291 89.6931 187.895 89.8781 187.625 89.8122C184.683 92.2809 181.813 97.5756 181.68 97.8239L182.319 98.1306Z" fill="#C8C8C8" fill-opacity="0.8"/>
<path d="M183.645 97.2007C183.645 97.2007 181.345 97.4871 180.195 97.3147C179.045 97.1424 178.323 98.3488 178.197 99.7251C178.071 101.101 178.863 104.602 179.408 105.461C179.954 106.32 181.89 106.728 184.129 106.609C186.367 106.49 187.218 105.747 187.338 104.771C187.458 103.796 185.466 100.07 184.918 99.0357C184.369 98.0016 184.252 97.3629 183.645 97.2007Z" fill="#C8C8C8" fill-opacity="0.8"/>
</svg>
