<svg width="46" height="41" viewBox="0 0 46 41" fill="none" xmlns="http://www.w3.org/2000/svg">
<path opacity="0.75" d="M18.3946 22.8235V40.7305H0.171875V27.4044C0.171875 22.1294 0.957952 17.3404 2.53011 13.0372C4.24518 8.59513 7.10364 4.43072 11.1055 0.543945L18.1802 5.54123C15.3217 8.73394 13.2493 11.7184 11.963 14.4947C10.8196 17.1322 10.105 19.9084 9.81918 22.8235H18.3946ZM45.1719 22.8235V40.7305H26.9492V27.4044C26.9492 22.1294 27.7353 17.3404 29.3074 13.0372C31.0225 8.59513 33.881 4.43072 37.8828 0.543945L44.9575 5.54123C42.099 8.73394 40.0266 11.7184 38.7403 14.4947C37.597 17.1322 36.8824 19.9084 36.5965 22.8235H45.1719Z" fill="#D4D4D4" fill-opacity="0.64"/>
</svg>
