<svg width="46" height="41" viewBox="0 0 46 41" fill="none" xmlns="http://www.w3.org/2000/svg">
<path opacity="0.75" d="M18.3946 22.7306V41H0.171875V27.4042C0.171875 22.0225 0.957952 17.1364 2.53011 12.7461C4.24518 8.21416 7.10364 3.96546 11.1055 0L18.1802 5.09845C15.3217 8.35579 13.2493 11.4007 11.963 14.2332C10.8196 16.924 10.105 19.7565 9.81918 22.7306H18.3946ZM45.1719 22.7306V41H26.9492V27.4042C26.9492 22.0225 27.7353 17.1364 29.3074 12.7461C31.0225 8.21416 33.881 3.96546 37.8828 0L44.9575 5.09845C42.099 8.35579 40.0266 11.4007 38.7403 14.2332C37.597 16.924 36.8824 19.7565 36.5965 22.7306H45.1719Z" fill="#D4D4D4" fill-opacity="0.64"/>
</svg>
